<svg xmlns="http://www.w3.org/2000/svg" xmlns:xlink="http://www.w3.org/1999/xlink" width="960" zoomAndPan="magnify" viewBox="0 0 720 1049.999947" height="1400" preserveAspectRatio="xMidYMid meet" version="1.0"><defs><g/><clipPath id="e40d361b2e"><path d="M 52 383 L 285.128906 383 L 285.128906 648.976562 L 52 648.976562 Z M 52 383 " clip-rule="nonzero"/></clipPath><clipPath id="066656bd72"><rect x="0" width="144" y="0" height="73"/></clipPath><clipPath id="133ef8d3d0"><path d="M 492.167969 441.773438 L 616.667969 441.773438 L 616.667969 516.773438 L 492.167969 516.773438 Z M 492.167969 441.773438 " clip-rule="nonzero"/></clipPath><clipPath id="0e8bea28d4"><path d="M 1 74 L 15 74 L 15 93.960938 L 1 93.960938 Z M 1 74 " clip-rule="nonzero"/></clipPath><clipPath id="fd58bcbf49"><rect x="0" width="348" y="0" height="94"/></clipPath></defs><rect x="-72" width="864" fill="#ffffff" y="-104.999995" height="1259.999936" fill-opacity="1"/><rect x="-72" width="864" fill="#d9d9d9" y="-104.999995" height="1259.999936" fill-opacity="1"/><g clip-path="url(#e40d361b2e)"><path fill="#185359" d="M 267.570312 399.398438 C 257.070312 389.390625 242.996094 383.808594 228.496094 383.859375 C 213.519531 383.917969 199.445312 389.777344 188.851562 400.371094 L 168.648438 420.574219 L 148.949219 400.875 C 127.007812 378.9375 91.277344 378.246094 69.125 399.980469 C 46.75 421.917969 46.617188 457.976562 68.726562 480.082031 L 175.707031 587.058594 C 187.917969 599.269531 188.484375 619.152344 176.515625 631.589844 C 164.265625 644.320312 143.929688 644.46875 131.492188 632.03125 L 104.992188 605.535156 C 103.875 604.417969 103.761719 602.648438 104.722656 601.386719 C 108.636719 596.238281 110.800781 589.699219 110.316406 582.652344 C 109.363281 568.738281 97.984375 557.550781 84.054688 556.824219 C 67.925781 555.984375 54.550781 568.972656 54.765625 584.96875 C 54.964844 599.789062 67.039062 612.019531 81.851562 612.390625 C 86.632812 612.511719 91.148438 611.417969 95.117188 609.402344 C 96.324219 608.792969 97.789062 609.050781 98.742188 610.003906 L 126.117188 637.386719 C 133.746094 645.011719 143.757812 648.820312 153.773438 648.820312 C 163.785156 648.820312 173.804688 645.007812 181.425781 637.386719 C 196.671875 622.140625 196.671875 597.324219 181.425781 582.078125 L 74.085938 474.726562 C 55.0625 455.703125 55.0625 424.753906 74.085938 405.730469 C 93.109375 386.707031 124.066406 386.707031 143.082031 405.730469 L 165.867188 428.515625 C 166.632812 429.28125 167.644531 429.640625 168.648438 429.617188 C 169.652344 429.640625 170.660156 429.28125 171.425781 428.515625 L 193.757812 406.1875 C 203.019531 396.921875 215.519531 391.46875 228.613281 391.445312 C 241.683594 391.417969 253.976562 396.496094 263.214844 405.730469 C 272.445312 414.96875 277.519531 427.242188 277.5 440.304688 C 277.480469 453.40625 272.019531 465.917969 262.757812 475.1875 L 255.542969 482.40625 C 254.949219 483 254.140625 483.332031 253.300781 483.332031 L 231.785156 483.332031 C 230.589844 483.332031 229.492188 482.65625 228.960938 481.589844 L 218.570312 460.804688 C 217.40625 458.476562 214.085938 458.476562 212.925781 460.804688 L 195.0625 496.496094 C 193.902344 498.828125 190.582031 498.828125 189.417969 496.496094 L 183.320312 484.292969 C 182.160156 481.960938 178.835938 481.960938 177.675781 484.292969 L 171.578125 496.492188 C 170.414062 498.820312 167.09375 498.820312 165.933594 496.492188 L 148.082031 460.792969 C 146.921875 458.464844 143.601562 458.464844 142.4375 460.792969 L 132.046875 481.578125 C 131.511719 482.644531 130.417969 483.320312 129.222656 483.320312 L 110.183594 483.320312 C 108.105469 483.320312 106.300781 484.917969 106.234375 486.996094 C 106.171875 489.140625 107.890625 490.894531 110.023438 490.894531 L 133.910156 490.894531 C 135.101562 490.894531 136.199219 490.222656 136.730469 489.152344 L 142.4375 477.734375 C 143.601562 475.402344 146.921875 475.402344 148.082031 477.734375 L 165.933594 513.429688 C 167.09375 515.757812 170.414062 515.757812 171.578125 513.429688 L 177.675781 501.230469 C 178.835938 498.902344 182.160156 498.902344 183.320312 501.230469 L 189.417969 513.4375 C 190.582031 515.765625 193.902344 515.765625 195.0625 513.4375 L 212.914062 477.738281 C 214.074219 475.414062 217.394531 475.410156 218.554688 477.738281 L 224.269531 489.160156 C 224.808594 490.226562 225.898438 490.902344 227.09375 490.902344 L 256.167969 490.902344 C 256.167969 490.902344 256.167969 490.902344 256.171875 490.902344 L 256.179688 490.902344 C 256.414062 490.902344 256.640625 490.878906 256.863281 490.839844 C 256.875 490.839844 256.894531 490.832031 256.90625 490.832031 C 257.125 490.789062 257.347656 490.726562 257.554688 490.644531 C 257.574219 490.636719 257.59375 490.632812 257.613281 490.625 C 257.820312 490.535156 258.023438 490.429688 258.210938 490.308594 C 258.230469 490.296875 258.25 490.289062 258.269531 490.277344 C 258.472656 490.140625 258.660156 489.988281 258.835938 489.816406 C 258.84375 489.808594 258.84375 489.808594 258.851562 489.804688 L 268.019531 480.636719 C 278.863281 469.789062 285.199219 455.097656 285.078125 439.753906 C 284.949219 424.414062 278.730469 410.039062 267.570312 399.398438 Z M 62.34375 584.589844 C 62.34375 573.433594 71.421875 564.363281 82.574219 564.363281 C 93.722656 564.363281 102.800781 573.441406 102.800781 584.589844 C 102.800781 595.746094 93.722656 604.820312 82.574219 604.820312 C 71.421875 604.820312 62.34375 595.746094 62.34375 584.589844 Z M 62.34375 584.589844 " fill-opacity="1" fill-rule="nonzero"/></g><g transform="matrix(1, 0, 0, 1, 330, 444)"><g clip-path="url(#066656bd72)"><g fill="#053a40" fill-opacity="1"><g transform="translate(0.399011, 53.641467)"><g><path d="M 18.71875 0.609375 C 14.675781 0.609375 11.117188 -0.382812 8.046875 -2.375 C 4.984375 -4.375 2.710938 -6.804688 1.234375 -9.671875 L 9.59375 -14.875 C 10.457031 -13.082031 11.679688 -11.632812 13.265625 -10.53125 C 14.847656 -9.4375 16.691406 -8.890625 18.796875 -8.890625 C 20.578125 -8.890625 21.96875 -9.273438 22.96875 -10.046875 C 23.96875 -10.816406 24.46875 -11.835938 24.46875 -13.109375 C 24.46875 -14.441406 23.957031 -15.515625 22.9375 -16.328125 C 21.914062 -17.148438 20.597656 -17.84375 18.984375 -18.40625 C 17.367188 -18.96875 15.65625 -19.566406 13.84375 -20.203125 C 12.03125 -20.847656 10.316406 -21.679688 8.703125 -22.703125 C 7.097656 -23.722656 5.78125 -25.050781 4.75 -26.6875 C 3.726562 -28.320312 3.21875 -30.445312 3.21875 -33.0625 C 3.21875 -36.125 3.929688 -38.648438 5.359375 -40.640625 C 6.796875 -42.640625 8.648438 -44.140625 10.921875 -45.140625 C 13.203125 -46.140625 15.546875 -46.640625 17.953125 -46.640625 C 20.816406 -46.640625 23.472656 -46.035156 25.921875 -44.828125 C 28.378906 -43.628906 30.453125 -42.054688 32.140625 -40.109375 L 25.390625 -33.671875 C 24.265625 -34.953125 23.0625 -35.9375 21.78125 -36.625 C 20.5 -37.3125 19.195312 -37.65625 17.875 -37.65625 C 16.644531 -37.65625 15.59375 -37.347656 14.71875 -36.734375 C 13.851562 -36.117188 13.421875 -35.148438 13.421875 -33.828125 C 13.421875 -32.492188 13.929688 -31.441406 14.953125 -30.671875 C 15.972656 -29.910156 17.289062 -29.25 18.90625 -28.6875 C 20.519531 -28.125 22.21875 -27.507812 24 -26.84375 C 25.789062 -26.175781 27.488281 -25.304688 29.09375 -24.234375 C 30.707031 -23.160156 32.023438 -21.738281 33.046875 -19.96875 C 34.078125 -18.207031 34.59375 -15.894531 34.59375 -13.03125 C 34.59375 -10.175781 33.863281 -7.722656 32.40625 -5.671875 C 30.945312 -3.628906 29.015625 -2.070312 26.609375 -1 C 24.210938 0.0703125 21.582031 0.609375 18.71875 0.609375 Z M 18.71875 0.609375 "/></g></g></g><g fill="#053a40" fill-opacity="1"><g transform="translate(40.246526, 53.641467)"><g><path d="M 26.46875 -25.234375 L 50.15625 -25.234375 L 50.15625 -23.015625 C 50.15625 -19.734375 49.539062 -16.675781 48.3125 -13.84375 C 47.09375 -11.007812 45.394531 -8.503906 43.21875 -6.328125 C 41.039062 -4.148438 38.535156 -2.445312 35.703125 -1.21875 C 32.867188 0 29.8125 0.609375 26.53125 0.609375 C 23.257812 0.609375 20.191406 0 17.328125 -1.21875 C 14.460938 -2.445312 11.957031 -4.148438 9.8125 -6.328125 C 7.664062 -8.503906 5.976562 -11.007812 4.75 -13.84375 C 3.53125 -16.675781 2.921875 -19.734375 2.921875 -23.015625 C 2.921875 -26.285156 3.53125 -29.335938 4.75 -32.171875 C 5.976562 -35.015625 7.664062 -37.519531 9.8125 -39.6875 C 11.957031 -41.863281 14.460938 -43.566406 17.328125 -44.796875 C 20.191406 -46.023438 23.257812 -46.640625 26.53125 -46.640625 C 31.082031 -46.640625 35.210938 -45.472656 38.921875 -43.140625 C 42.628906 -40.816406 45.484375 -37.765625 47.484375 -33.984375 L 38.734375 -29.453125 C 37.609375 -31.648438 35.972656 -33.410156 33.828125 -34.734375 C 31.679688 -36.066406 29.25 -36.734375 26.53125 -36.734375 C 23.976562 -36.734375 21.648438 -36.132812 19.546875 -34.9375 C 17.453125 -33.738281 15.804688 -32.101562 14.609375 -30.03125 C 13.410156 -27.957031 12.8125 -25.617188 12.8125 -23.015625 C 12.8125 -20.398438 13.410156 -18.054688 14.609375 -15.984375 C 15.804688 -13.921875 17.453125 -12.285156 19.546875 -11.078125 C 21.648438 -9.878906 23.976562 -9.28125 26.53125 -9.28125 C 29.394531 -9.28125 31.9375 -10.019531 34.15625 -11.5 C 36.382812 -12.988281 38.035156 -14.929688 39.109375 -17.328125 L 26.46875 -17.328125 Z M 26.46875 -25.234375 "/></g></g></g><g fill="#053a40" fill-opacity="1"><g transform="translate(96.811786, 53.641467)"><g><path d="M 32.671875 0 L 29.84375 -8.671875 L 12.65625 -8.671875 L 9.8125 0 L -1 0 L 15.5625 -46.015625 L 26.921875 -46.015625 L 43.484375 0 Z M 15.34375 -17.109375 L 27.15625 -17.109375 L 21.25 -35.359375 Z M 15.34375 -17.109375 "/></g></g></g></g></g><path stroke-linecap="butt" transform="matrix(0.75, 0, 0, 0.75, 280.086964, 509.466029)" fill="none" stroke-linejoin="miter" d="M -0.00136918 5.49842 L 302.436159 5.49842 " stroke="#185359" stroke-width="11" stroke-opacity="1" stroke-miterlimit="4"/><g clip-path="url(#133ef8d3d0)"><path fill="#185359" d="M 559.210938 451.230469 C 560.417969 451.230469 561.398438 452.210938 561.398438 453.417969 L 561.398438 464.042969 L 572.023438 464.042969 C 573.230469 464.042969 574.210938 465.023438 574.210938 466.230469 L 574.210938 481.546875 C 574.210938 482.753906 573.230469 483.734375 572.023438 483.734375 L 561.398438 483.734375 L 561.398438 494.359375 C 561.398438 495.566406 560.417969 496.546875 559.210938 496.546875 L 543.894531 496.546875 C 542.6875 496.546875 541.707031 495.566406 541.707031 494.359375 L 541.707031 483.734375 L 517.015625 483.734375 C 515.808594 483.734375 514.828125 482.753906 514.828125 481.546875 C 514.828125 480.335938 515.808594 479.359375 517.015625 479.359375 L 543.894531 479.359375 C 545.101562 479.359375 546.082031 480.335938 546.082031 481.546875 L 546.082031 492.171875 L 557.019531 492.171875 L 557.019531 481.546875 C 557.019531 480.335938 558 479.359375 559.210938 479.359375 L 569.835938 479.359375 L 569.835938 468.417969 L 559.210938 468.417969 C 558 468.417969 557.019531 467.441406 557.019531 466.230469 L 557.019531 455.605469 L 506.855469 455.605469 C 505.648438 455.605469 504.667969 454.625 504.667969 453.417969 C 504.667969 452.210938 505.648438 451.230469 506.855469 451.230469 C 524.3125 451.230469 541.757812 451.230469 559.210938 451.230469 Z M 577.773438 441.789062 L 577.808594 441.789062 C 579.605469 441.789062 581.074219 443.257812 581.074219 445.054688 L 581.074219 446.503906 L 583.074219 446.503906 L 583.074219 449.046875 L 572.507812 449.046875 L 572.507812 446.503906 L 574.507812 446.503906 L 574.507812 445.054688 C 574.507812 443.257812 575.976562 441.789062 577.773438 441.789062 Z M 578.691406 463.128906 L 578.691406 474.929688 C 578.691406 476.433594 579.921875 477.664062 581.425781 477.664062 L 592.882812 477.664062 L 587.460938 460.394531 L 581.425781 460.394531 C 579.921875 460.394531 578.691406 461.625 578.691406 463.128906 Z M 578.652344 493.878906 C 581.757812 493.878906 584.570312 495.136719 586.609375 497.171875 C 588.152344 498.71875 589.25 500.710938 589.691406 502.941406 L 605.800781 502.941406 C 607.578125 502.941406 609.195312 502.214844 610.363281 501.046875 C 611.535156 499.875 612.257812 498.261719 612.257812 496.484375 L 612.257812 489.484375 C 612.257812 487.984375 611.78125 486.613281 610.945312 485.527344 C 610.105469 484.4375 608.902344 483.621094 607.457031 483.238281 L 598.628906 480.902344 L 591.921875 459.554688 C 591.417969 458.347656 590.613281 457.367188 589.613281 456.6875 C 588.589844 455.992188 587.332031 455.605469 585.960938 455.605469 L 569.128906 455.605469 C 567.921875 455.605469 566.941406 454.625 566.941406 453.417969 C 566.941406 452.210938 567.921875 451.230469 569.128906 451.230469 L 585.960938 451.230469 C 588.207031 451.230469 590.304688 451.890625 592.058594 453.082031 C 593.808594 454.269531 595.191406 455.976562 596.023438 458.074219 L 596.082031 458.226562 L 602.074219 477.296875 L 608.570312 479.015625 C 610.96875 479.652344 612.984375 481.023438 614.398438 482.863281 C 615.820312 484.707031 616.636719 487.007812 616.636719 489.484375 L 616.636719 496.484375 C 616.636719 499.46875 615.417969 502.175781 613.457031 504.140625 C 611.496094 506.101562 608.785156 507.316406 605.800781 507.316406 L 589.691406 507.316406 C 589.25 509.546875 588.152344 511.539062 586.609375 513.085938 C 584.570312 515.121094 581.757812 516.378906 578.652344 516.378906 C 575.546875 516.378906 572.734375 515.121094 570.695312 513.085938 C 569.152344 511.539062 568.054688 509.546875 567.613281 507.316406 L 536.246094 507.316406 C 535.808594 509.546875 534.710938 511.539062 533.164062 513.085938 C 531.128906 515.121094 528.316406 516.378906 525.207031 516.378906 C 522.101562 516.378906 519.289062 515.121094 517.253906 513.085938 C 515.707031 511.539062 514.609375 509.546875 514.171875 507.316406 L 502.484375 507.316406 C 501.277344 507.316406 500.296875 506.335938 500.296875 505.128906 C 500.296875 503.921875 501.277344 502.941406 502.484375 502.941406 L 514.171875 502.941406 C 514.609375 500.710938 515.707031 498.71875 517.253906 497.171875 C 519.289062 495.136719 522.101562 493.878906 525.207031 493.878906 C 528.316406 493.878906 531.128906 495.136719 533.164062 497.171875 C 534.710938 498.71875 535.808594 500.710938 536.246094 502.941406 L 567.613281 502.941406 C 568.054688 500.710938 569.152344 498.71875 570.695312 497.171875 C 572.734375 495.136719 575.546875 493.878906 578.652344 493.878906 Z M 583.515625 500.265625 C 582.269531 499.023438 580.550781 498.253906 578.652344 498.253906 C 576.753906 498.253906 575.035156 499.023438 573.789062 500.265625 C 572.546875 501.511719 571.777344 503.230469 571.777344 505.128906 C 571.777344 507.027344 572.546875 508.746094 573.789062 509.992188 C 575.035156 511.234375 576.753906 512.003906 578.652344 512.003906 C 580.550781 512.003906 582.269531 511.234375 583.515625 509.992188 C 584.757812 508.746094 585.527344 507.027344 585.527344 505.128906 C 585.527344 503.230469 584.757812 501.511719 583.515625 500.265625 Z M 530.070312 500.265625 C 528.828125 499.023438 527.105469 498.253906 525.207031 498.253906 C 523.308594 498.253906 521.589844 499.023438 520.347656 500.265625 C 519.101562 501.511719 518.332031 503.230469 518.332031 505.128906 C 518.332031 507.027344 519.101562 508.746094 520.347656 509.992188 C 521.589844 511.234375 523.308594 512.003906 525.207031 512.003906 C 527.105469 512.003906 528.828125 511.234375 530.070312 509.992188 C 531.316406 508.746094 532.085938 507.027344 532.085938 505.128906 C 532.085938 503.230469 531.316406 501.511719 530.070312 500.265625 Z M 528.894531 468.417969 L 494.359375 468.417969 C 493.148438 468.417969 492.167969 467.441406 492.167969 466.230469 C 492.167969 465.023438 493.148438 464.042969 494.359375 464.042969 L 546.082031 464.042969 L 546.082031 466.230469 C 546.082031 467.441406 545.101562 468.417969 543.894531 468.417969 Z M 528.894531 468.417969 " fill-opacity="1" fill-rule="nonzero"/></g><g transform="matrix(1, 0, 0, 1, 276, 525)"><g clip-path="url(#fd58bcbf49)"><g fill="#053a40" fill-opacity="1"><g transform="translate(0.161272, 22.41573)"><g><path d="M 1.734375 0 L 1.734375 -17.609375 L 7.546875 -17.609375 C 8.753906 -17.609375 9.890625 -17.375 10.953125 -16.90625 C 12.023438 -16.445312 12.960938 -15.816406 13.765625 -15.015625 C 14.566406 -14.210938 15.195312 -13.28125 15.65625 -12.21875 C 16.113281 -11.15625 16.34375 -10.015625 16.34375 -8.796875 C 16.34375 -7.585938 16.113281 -6.445312 15.65625 -5.375 C 15.195312 -4.3125 14.566406 -3.378906 13.765625 -2.578125 C 12.960938 -1.773438 12.023438 -1.144531 10.953125 -0.6875 C 9.890625 -0.226562 8.753906 0 7.546875 0 Z M 5.609375 -3.4375 L 7.515625 -3.4375 C 8.453125 -3.4375 9.289062 -3.671875 10.03125 -4.140625 C 10.769531 -4.609375 11.359375 -5.25 11.796875 -6.0625 C 12.242188 -6.875 12.46875 -7.785156 12.46875 -8.796875 C 12.46875 -9.816406 12.242188 -10.734375 11.796875 -11.546875 C 11.359375 -12.359375 10.769531 -13 10.03125 -13.46875 C 9.289062 -13.9375 8.453125 -14.171875 7.515625 -14.171875 L 5.609375 -14.171875 Z M 5.609375 -3.4375 "/></g></g></g><g fill="#053a40" fill-opacity="1"><g transform="translate(20.814721, 22.41573)"><g><path d="M 14.8125 -3.046875 L 15.34375 -3.046875 L 15.34375 0 C 15.207031 0.0625 15.054688 0.113281 14.890625 0.15625 C 14.722656 0.207031 14.539062 0.234375 14.34375 0.234375 C 13.5625 0.234375 12.859375 0.0546875 12.234375 -0.296875 C 11.609375 -0.660156 11.109375 -1.148438 10.734375 -1.765625 C 10.265625 -1.148438 9.691406 -0.660156 9.015625 -0.296875 C 8.347656 0.0546875 7.582031 0.234375 6.71875 0.234375 C 5.644531 0.234375 4.664062 -0.0351562 3.78125 -0.578125 C 2.90625 -1.128906 2.207031 -1.863281 1.6875 -2.78125 C 1.164062 -3.707031 0.90625 -4.738281 0.90625 -5.875 C 0.90625 -7 1.164062 -8.019531 1.6875 -8.9375 C 2.207031 -9.863281 2.90625 -10.597656 3.78125 -11.140625 C 4.664062 -11.691406 5.644531 -11.96875 6.71875 -11.96875 C 7.40625 -11.96875 8.023438 -11.851562 8.578125 -11.625 C 9.140625 -11.40625 9.632812 -11.097656 10.0625 -10.703125 L 10.0625 -11.734375 L 13.78125 -11.734375 L 13.78125 -4.1875 C 13.78125 -3.707031 13.890625 -3.394531 14.109375 -3.25 C 14.328125 -3.113281 14.5625 -3.046875 14.8125 -3.046875 Z M 7.453125 -3.078125 C 8.210938 -3.078125 8.863281 -3.34375 9.40625 -3.875 C 9.957031 -4.414062 10.234375 -5.082031 10.234375 -5.875 C 10.234375 -6.65625 9.957031 -7.3125 9.40625 -7.84375 C 8.863281 -8.382812 8.210938 -8.65625 7.453125 -8.65625 C 6.671875 -8.65625 6.007812 -8.382812 5.46875 -7.84375 C 4.9375 -7.3125 4.671875 -6.65625 4.671875 -5.875 C 4.671875 -5.082031 4.9375 -4.414062 5.46875 -3.875 C 6.007812 -3.34375 6.671875 -3.078125 7.453125 -3.078125 Z M 7.453125 -3.078125 "/></g></g></g><g fill="#053a40" fill-opacity="1"><g transform="translate(39.826488, 22.41573)"><g/></g></g><g fill="#053a40" fill-opacity="1"><g transform="translate(50.10209, 22.41573)"><g><path d="M 5.515625 0.234375 C 4.472656 0.234375 3.472656 -0.0078125 2.515625 -0.5 C 1.554688 -0.988281 0.90625 -1.679688 0.5625 -2.578125 L 3.3125 -3.953125 C 3.582031 -3.472656 3.898438 -3.148438 4.265625 -2.984375 C 4.628906 -2.816406 4.96875 -2.734375 5.28125 -2.734375 C 5.59375 -2.734375 5.84375 -2.796875 6.03125 -2.921875 C 6.21875 -3.046875 6.3125 -3.226562 6.3125 -3.46875 C 6.3125 -3.675781 6.207031 -3.863281 6 -4.03125 C 5.789062 -4.195312 5.425781 -4.378906 4.90625 -4.578125 C 4.445312 -4.753906 3.929688 -4.972656 3.359375 -5.234375 C 2.785156 -5.492188 2.28125 -5.859375 1.84375 -6.328125 C 1.414062 -6.804688 1.203125 -7.4375 1.203125 -8.21875 C 1.203125 -8.882812 1.378906 -9.5 1.734375 -10.0625 C 2.097656 -10.625 2.609375 -11.082031 3.265625 -11.4375 C 3.921875 -11.789062 4.691406 -11.96875 5.578125 -11.96875 C 6.398438 -11.96875 7.15625 -11.820312 7.84375 -11.53125 C 8.539062 -11.238281 9.101562 -10.867188 9.53125 -10.421875 L 7.65625 -8.296875 C 7.476562 -8.515625 7.226562 -8.710938 6.90625 -8.890625 C 6.582031 -9.066406 6.226562 -9.15625 5.84375 -9.15625 C 5.53125 -9.15625 5.296875 -9.085938 5.140625 -8.953125 C 4.984375 -8.828125 4.90625 -8.671875 4.90625 -8.484375 C 4.90625 -8.265625 5.003906 -8.09375 5.203125 -7.96875 C 5.410156 -7.84375 5.726562 -7.691406 6.15625 -7.515625 C 6.726562 -7.296875 7.285156 -7.03125 7.828125 -6.71875 C 8.378906 -6.40625 8.835938 -6 9.203125 -5.5 C 9.578125 -5 9.765625 -4.359375 9.765625 -3.578125 C 9.765625 -2.484375 9.390625 -1.570312 8.640625 -0.84375 C 7.890625 -0.125 6.847656 0.234375 5.515625 0.234375 Z M 5.515625 0.234375 "/></g></g></g><g fill="#053a40" fill-opacity="1"><g transform="translate(63.661093, 22.41573)"><g><path d="M 3.671875 -13.703125 C 3.117188 -13.703125 2.632812 -13.90625 2.21875 -14.3125 C 1.8125 -14.726562 1.609375 -15.207031 1.609375 -15.75 C 1.609375 -16.320312 1.8125 -16.804688 2.21875 -17.203125 C 2.632812 -17.609375 3.117188 -17.8125 3.671875 -17.8125 C 4.234375 -17.8125 4.710938 -17.609375 5.109375 -17.203125 C 5.515625 -16.804688 5.71875 -16.320312 5.71875 -15.75 C 5.71875 -15.207031 5.515625 -14.726562 5.109375 -14.3125 C 4.710938 -13.90625 4.234375 -13.703125 3.671875 -13.703125 Z M 1.796875 0 L 1.796875 -11.734375 L 5.515625 -11.734375 L 5.515625 0 Z M 1.796875 0 "/></g></g></g><g fill="#053a40" fill-opacity="1"><g transform="translate(74.229855, 22.41573)"><g><path d="M 8.765625 -11.96875 C 8.941406 -11.96875 9.113281 -11.957031 9.28125 -11.9375 C 9.445312 -11.914062 9.597656 -11.890625 9.734375 -11.859375 L 9.734375 -8.53125 C 9.597656 -8.570312 9.4375 -8.601562 9.25 -8.625 C 9.070312 -8.644531 8.875 -8.65625 8.65625 -8.65625 C 7.738281 -8.65625 6.976562 -8.390625 6.375 -7.859375 C 5.78125 -7.328125 5.484375 -6.578125 5.484375 -5.609375 L 5.484375 0 L 1.734375 0 L 1.734375 -11.734375 L 5.484375 -11.734375 L 5.484375 -10.125 C 5.878906 -10.6875 6.351562 -11.132812 6.90625 -11.46875 C 7.46875 -11.800781 8.085938 -11.96875 8.765625 -11.96875 Z M 8.765625 -11.96875 "/></g></g></g><g fill="#053a40" fill-opacity="1"><g transform="translate(87.143898, 22.41573)"><g><path d="M 13.671875 -5.890625 L 13.671875 -5.25 L 4.6875 -5.25 C 4.769531 -4.40625 5.035156 -3.742188 5.484375 -3.265625 C 5.929688 -2.785156 6.578125 -2.546875 7.421875 -2.546875 C 8.710938 -2.546875 9.535156 -3.046875 9.890625 -4.046875 L 13.5 -4.046875 C 13.195312 -2.773438 12.523438 -1.742188 11.484375 -0.953125 C 10.441406 -0.160156 9.109375 0.234375 7.484375 0.234375 C 6.171875 0.234375 5.019531 -0.0195312 4.03125 -0.53125 C 3.039062 -1.039062 2.269531 -1.753906 1.71875 -2.671875 C 1.175781 -3.585938 0.90625 -4.65625 0.90625 -5.875 C 0.90625 -7.101562 1.175781 -8.175781 1.71875 -9.09375 C 2.269531 -10.007812 3.035156 -10.722656 4.015625 -11.234375 C 4.992188 -11.742188 6.109375 -12 7.359375 -12 C 8.628906 -12 9.734375 -11.742188 10.671875 -11.234375 C 11.617188 -10.722656 12.351562 -10.015625 12.875 -9.109375 C 13.40625 -8.203125 13.671875 -7.128906 13.671875 -5.890625 Z M 7.421875 -9.125 C 6.753906 -9.125 6.21875 -8.976562 5.8125 -8.6875 C 5.414062 -8.40625 5.117188 -8.015625 4.921875 -7.515625 L 9.796875 -7.515625 C 9.597656 -8.015625 9.304688 -8.40625 8.921875 -8.6875 C 8.546875 -8.976562 8.046875 -9.125 7.421875 -9.125 Z M 7.421875 -9.125 "/></g></g></g><g fill="#053a40" fill-opacity="1"><g transform="translate(104.924385, 22.41573)"><g><path d="M 8.828125 -11.96875 C 9.609375 -11.96875 10.3125 -11.765625 10.9375 -11.359375 C 11.5625 -10.960938 12.066406 -10.421875 12.453125 -9.734375 C 12.835938 -9.054688 13.03125 -8.285156 13.03125 -7.421875 L 13.03125 0 L 9.296875 0 L 9.296875 -6.8125 C 9.296875 -7.332031 9.125 -7.769531 8.78125 -8.125 C 8.4375 -8.476562 7.992188 -8.65625 7.453125 -8.65625 C 6.898438 -8.65625 6.429688 -8.476562 6.046875 -8.125 C 5.671875 -7.769531 5.484375 -7.332031 5.484375 -6.8125 L 5.484375 0 L 1.734375 0 L 1.734375 -11.734375 L 5.484375 -11.734375 L 5.484375 -10.296875 C 5.898438 -10.804688 6.394531 -11.210938 6.96875 -11.515625 C 7.539062 -11.816406 8.160156 -11.96875 8.828125 -11.96875 Z M 8.828125 -11.96875 "/></g></g></g><g fill="#053a40" fill-opacity="1"><g transform="translate(122.675552, 22.41573)"><g><path d="M 13.671875 -5.890625 L 13.671875 -5.25 L 4.6875 -5.25 C 4.769531 -4.40625 5.035156 -3.742188 5.484375 -3.265625 C 5.929688 -2.785156 6.578125 -2.546875 7.421875 -2.546875 C 8.710938 -2.546875 9.535156 -3.046875 9.890625 -4.046875 L 13.5 -4.046875 C 13.195312 -2.773438 12.523438 -1.742188 11.484375 -0.953125 C 10.441406 -0.160156 9.109375 0.234375 7.484375 0.234375 C 6.171875 0.234375 5.019531 -0.0195312 4.03125 -0.53125 C 3.039062 -1.039062 2.269531 -1.753906 1.71875 -2.671875 C 1.175781 -3.585938 0.90625 -4.65625 0.90625 -5.875 C 0.90625 -7.101562 1.175781 -8.175781 1.71875 -9.09375 C 2.269531 -10.007812 3.035156 -10.722656 4.015625 -11.234375 C 4.992188 -11.742188 6.109375 -12 7.359375 -12 C 8.628906 -12 9.734375 -11.742188 10.671875 -11.234375 C 11.617188 -10.722656 12.351562 -10.015625 12.875 -9.109375 C 13.40625 -8.203125 13.671875 -7.128906 13.671875 -5.890625 Z M 7.421875 -9.125 C 6.753906 -9.125 6.21875 -8.976562 5.8125 -8.6875 C 5.414062 -8.40625 5.117188 -8.015625 4.921875 -7.515625 L 9.796875 -7.515625 C 9.597656 -8.015625 9.304688 -8.40625 8.921875 -8.6875 C 8.546875 -8.976562 8.046875 -9.125 7.421875 -9.125 Z M 7.421875 -9.125 "/></g></g></g><g fill="#053a40" fill-opacity="1"><g transform="translate(140.456039, 22.41573)"><g/></g></g><g fill="#053a40" fill-opacity="1"><g transform="translate(150.731641, 22.41573)"><g><path d="M 8.796875 -13.234375 L 6.34375 -13.234375 L 2.671875 -17.609375 L 6.21875 -17.609375 Z M 14.8125 -3.046875 L 15.34375 -3.046875 L 15.34375 0 C 15.207031 0.0625 15.054688 0.113281 14.890625 0.15625 C 14.722656 0.207031 14.539062 0.234375 14.34375 0.234375 C 13.5625 0.234375 12.859375 0.0546875 12.234375 -0.296875 C 11.609375 -0.660156 11.109375 -1.148438 10.734375 -1.765625 C 10.265625 -1.148438 9.691406 -0.660156 9.015625 -0.296875 C 8.347656 0.0546875 7.582031 0.234375 6.71875 0.234375 C 5.644531 0.234375 4.664062 -0.0351562 3.78125 -0.578125 C 2.90625 -1.128906 2.207031 -1.863281 1.6875 -2.78125 C 1.164062 -3.707031 0.90625 -4.738281 0.90625 -5.875 C 0.90625 -7 1.164062 -8.019531 1.6875 -8.9375 C 2.207031 -9.863281 2.90625 -10.597656 3.78125 -11.140625 C 4.664062 -11.691406 5.644531 -11.96875 6.71875 -11.96875 C 7.40625 -11.96875 8.023438 -11.851562 8.578125 -11.625 C 9.140625 -11.40625 9.632812 -11.097656 10.0625 -10.703125 L 10.0625 -11.734375 L 13.78125 -11.734375 L 13.78125 -4.1875 C 13.78125 -3.707031 13.890625 -3.394531 14.109375 -3.25 C 14.328125 -3.113281 14.5625 -3.046875 14.8125 -3.046875 Z M 7.453125 -3.078125 C 8.210938 -3.078125 8.863281 -3.34375 9.40625 -3.875 C 9.957031 -4.414062 10.234375 -5.082031 10.234375 -5.875 C 10.234375 -6.65625 9.957031 -7.3125 9.40625 -7.84375 C 8.863281 -8.382812 8.210938 -8.65625 7.453125 -8.65625 C 6.671875 -8.65625 6.007812 -8.382812 5.46875 -7.84375 C 4.9375 -7.3125 4.671875 -6.65625 4.671875 -5.875 C 4.671875 -5.082031 4.9375 -4.414062 5.46875 -3.875 C 6.007812 -3.34375 6.671875 -3.078125 7.453125 -3.078125 Z M 7.453125 -3.078125 "/></g></g></g><g fill="#053a40" fill-opacity="1"><g transform="translate(169.743408, 22.41573)"><g/></g></g><g fill="#053a40" fill-opacity="1"><g transform="translate(180.01901, 22.41573)"><g><path d="M 13.671875 -5.890625 L 13.671875 -5.25 L 4.6875 -5.25 C 4.769531 -4.40625 5.035156 -3.742188 5.484375 -3.265625 C 5.929688 -2.785156 6.578125 -2.546875 7.421875 -2.546875 C 8.710938 -2.546875 9.535156 -3.046875 9.890625 -4.046875 L 13.5 -4.046875 C 13.195312 -2.773438 12.523438 -1.742188 11.484375 -0.953125 C 10.441406 -0.160156 9.109375 0.234375 7.484375 0.234375 C 6.171875 0.234375 5.019531 -0.0195312 4.03125 -0.53125 C 3.039062 -1.039062 2.269531 -1.753906 1.71875 -2.671875 C 1.175781 -3.585938 0.90625 -4.65625 0.90625 -5.875 C 0.90625 -7.101562 1.175781 -8.175781 1.71875 -9.09375 C 2.269531 -10.007812 3.035156 -10.722656 4.015625 -11.234375 C 4.992188 -11.742188 6.109375 -12 7.359375 -12 C 8.628906 -12 9.734375 -11.742188 10.671875 -11.234375 C 11.617188 -10.722656 12.351562 -10.015625 12.875 -9.109375 C 13.40625 -8.203125 13.671875 -7.128906 13.671875 -5.890625 Z M 7.421875 -9.125 C 6.753906 -9.125 6.21875 -8.976562 5.8125 -8.6875 C 5.414062 -8.40625 5.117188 -8.015625 4.921875 -7.515625 L 9.796875 -7.515625 C 9.597656 -8.015625 9.304688 -8.40625 8.921875 -8.6875 C 8.546875 -8.976562 8.046875 -9.125 7.421875 -9.125 Z M 7.421875 -9.125 "/></g></g></g><g fill="#053a40" fill-opacity="1"><g transform="translate(197.799497, 22.41573)"><g><path d="M 5.515625 0.234375 C 4.472656 0.234375 3.472656 -0.0078125 2.515625 -0.5 C 1.554688 -0.988281 0.90625 -1.679688 0.5625 -2.578125 L 3.3125 -3.953125 C 3.582031 -3.472656 3.898438 -3.148438 4.265625 -2.984375 C 4.628906 -2.816406 4.96875 -2.734375 5.28125 -2.734375 C 5.59375 -2.734375 5.84375 -2.796875 6.03125 -2.921875 C 6.21875 -3.046875 6.3125 -3.226562 6.3125 -3.46875 C 6.3125 -3.675781 6.207031 -3.863281 6 -4.03125 C 5.789062 -4.195312 5.425781 -4.378906 4.90625 -4.578125 C 4.445312 -4.753906 3.929688 -4.972656 3.359375 -5.234375 C 2.785156 -5.492188 2.28125 -5.859375 1.84375 -6.328125 C 1.414062 -6.804688 1.203125 -7.4375 1.203125 -8.21875 C 1.203125 -8.882812 1.378906 -9.5 1.734375 -10.0625 C 2.097656 -10.625 2.609375 -11.082031 3.265625 -11.4375 C 3.921875 -11.789062 4.691406 -11.96875 5.578125 -11.96875 C 6.398438 -11.96875 7.15625 -11.820312 7.84375 -11.53125 C 8.539062 -11.238281 9.101562 -10.867188 9.53125 -10.421875 L 7.65625 -8.296875 C 7.476562 -8.515625 7.226562 -8.710938 6.90625 -8.890625 C 6.582031 -9.066406 6.226562 -9.15625 5.84375 -9.15625 C 5.53125 -9.15625 5.296875 -9.085938 5.140625 -8.953125 C 4.984375 -8.828125 4.90625 -8.671875 4.90625 -8.484375 C 4.90625 -8.265625 5.003906 -8.09375 5.203125 -7.96875 C 5.410156 -7.84375 5.726562 -7.691406 6.15625 -7.515625 C 6.726562 -7.296875 7.285156 -7.03125 7.828125 -6.71875 C 8.378906 -6.40625 8.835938 -6 9.203125 -5.5 C 9.578125 -5 9.765625 -4.359375 9.765625 -3.578125 C 9.765625 -2.484375 9.390625 -1.570312 8.640625 -0.84375 C 7.890625 -0.125 6.847656 0.234375 5.515625 0.234375 Z M 5.515625 0.234375 "/></g></g></g><g fill="#053a40" fill-opacity="1"><g transform="translate(211.3585, 22.41573)"><g><path d="M 8.828125 -11.96875 C 9.898438 -11.96875 10.867188 -11.691406 11.734375 -11.140625 C 12.609375 -10.597656 13.304688 -9.863281 13.828125 -8.9375 C 14.347656 -8.019531 14.609375 -7 14.609375 -5.875 C 14.609375 -4.738281 14.347656 -3.707031 13.828125 -2.78125 C 13.304688 -1.863281 12.609375 -1.128906 11.734375 -0.578125 C 10.867188 -0.0351562 9.898438 0.234375 8.828125 0.234375 C 8.160156 0.234375 7.546875 0.125 6.984375 -0.09375 C 6.429688 -0.320312 5.929688 -0.632812 5.484375 -1.03125 L 5.484375 7.0625 L 1.734375 7.046875 L 1.734375 -11.734375 L 5.484375 -11.703125 L 5.484375 -10.703125 C 5.929688 -11.097656 6.429688 -11.40625 6.984375 -11.625 C 7.546875 -11.851562 8.160156 -11.96875 8.828125 -11.96875 Z M 8.09375 -3.078125 C 8.875 -3.078125 9.535156 -3.34375 10.078125 -3.875 C 10.617188 -4.414062 10.890625 -5.082031 10.890625 -5.875 C 10.890625 -6.65625 10.617188 -7.3125 10.078125 -7.84375 C 9.535156 -8.382812 8.875 -8.65625 8.09375 -8.65625 C 7.3125 -8.65625 6.648438 -8.382812 6.109375 -7.84375 C 5.578125 -7.3125 5.3125 -6.65625 5.3125 -5.875 C 5.3125 -5.082031 5.578125 -4.414062 6.109375 -3.875 C 6.648438 -3.34375 7.3125 -3.078125 8.09375 -3.078125 Z M 8.09375 -3.078125 "/></g></g></g><g fill="#053a40" fill-opacity="1"><g transform="translate(230.106427, 22.41573)"><g><path d="M 13.671875 -5.890625 L 13.671875 -5.25 L 4.6875 -5.25 C 4.769531 -4.40625 5.035156 -3.742188 5.484375 -3.265625 C 5.929688 -2.785156 6.578125 -2.546875 7.421875 -2.546875 C 8.710938 -2.546875 9.535156 -3.046875 9.890625 -4.046875 L 13.5 -4.046875 C 13.195312 -2.773438 12.523438 -1.742188 11.484375 -0.953125 C 10.441406 -0.160156 9.109375 0.234375 7.484375 0.234375 C 6.171875 0.234375 5.019531 -0.0195312 4.03125 -0.53125 C 3.039062 -1.039062 2.269531 -1.753906 1.71875 -2.671875 C 1.175781 -3.585938 0.90625 -4.65625 0.90625 -5.875 C 0.90625 -7.101562 1.175781 -8.175781 1.71875 -9.09375 C 2.269531 -10.007812 3.035156 -10.722656 4.015625 -11.234375 C 4.992188 -11.742188 6.109375 -12 7.359375 -12 C 8.628906 -12 9.734375 -11.742188 10.671875 -11.234375 C 11.617188 -10.722656 12.351562 -10.015625 12.875 -9.109375 C 13.40625 -8.203125 13.671875 -7.128906 13.671875 -5.890625 Z M 7.421875 -9.125 C 6.753906 -9.125 6.21875 -8.976562 5.8125 -8.6875 C 5.414062 -8.40625 5.117188 -8.015625 4.921875 -7.515625 L 9.796875 -7.515625 C 9.597656 -8.015625 9.304688 -8.40625 8.921875 -8.6875 C 8.546875 -8.976562 8.046875 -9.125 7.421875 -9.125 Z M 7.421875 -9.125 "/></g></g></g><g fill="#053a40" fill-opacity="1"><g transform="translate(247.886914, 22.41573)"><g><path d="M 8.765625 -11.96875 C 8.941406 -11.96875 9.113281 -11.957031 9.28125 -11.9375 C 9.445312 -11.914062 9.597656 -11.890625 9.734375 -11.859375 L 9.734375 -8.53125 C 9.597656 -8.570312 9.4375 -8.601562 9.25 -8.625 C 9.070312 -8.644531 8.875 -8.65625 8.65625 -8.65625 C 7.738281 -8.65625 6.976562 -8.390625 6.375 -7.859375 C 5.78125 -7.328125 5.484375 -6.578125 5.484375 -5.609375 L 5.484375 0 L 1.734375 0 L 1.734375 -11.734375 L 5.484375 -11.734375 L 5.484375 -10.125 C 5.878906 -10.6875 6.351562 -11.132812 6.90625 -11.46875 C 7.46875 -11.800781 8.085938 -11.96875 8.765625 -11.96875 Z M 8.765625 -11.96875 "/></g></g></g><g fill="#053a40" fill-opacity="1"><g transform="translate(260.800957, 22.41573)"><g><path d="M 14.8125 -3.046875 L 15.34375 -3.046875 L 15.34375 0 C 15.207031 0.0625 15.054688 0.113281 14.890625 0.15625 C 14.722656 0.207031 14.539062 0.234375 14.34375 0.234375 C 13.5625 0.234375 12.859375 0.0546875 12.234375 -0.296875 C 11.609375 -0.660156 11.109375 -1.148438 10.734375 -1.765625 C 10.265625 -1.148438 9.691406 -0.660156 9.015625 -0.296875 C 8.347656 0.0546875 7.582031 0.234375 6.71875 0.234375 C 5.644531 0.234375 4.664062 -0.0351562 3.78125 -0.578125 C 2.90625 -1.128906 2.207031 -1.863281 1.6875 -2.78125 C 1.164062 -3.707031 0.90625 -4.738281 0.90625 -5.875 C 0.90625 -7 1.164062 -8.019531 1.6875 -8.9375 C 2.207031 -9.863281 2.90625 -10.597656 3.78125 -11.140625 C 4.664062 -11.691406 5.644531 -11.96875 6.71875 -11.96875 C 7.40625 -11.96875 8.023438 -11.851562 8.578125 -11.625 C 9.140625 -11.40625 9.632812 -11.097656 10.0625 -10.703125 L 10.0625 -11.734375 L 13.78125 -11.734375 L 13.78125 -4.1875 C 13.78125 -3.707031 13.890625 -3.394531 14.109375 -3.25 C 14.328125 -3.113281 14.5625 -3.046875 14.8125 -3.046875 Z M 7.453125 -3.078125 C 8.210938 -3.078125 8.863281 -3.34375 9.40625 -3.875 C 9.957031 -4.414062 10.234375 -5.082031 10.234375 -5.875 C 10.234375 -6.65625 9.957031 -7.3125 9.40625 -7.84375 C 8.863281 -8.382812 8.210938 -8.65625 7.453125 -8.65625 C 6.671875 -8.65625 6.007812 -8.382812 5.46875 -7.84375 C 4.9375 -7.3125 4.671875 -6.65625 4.671875 -5.875 C 4.671875 -5.082031 4.9375 -4.414062 5.46875 -3.875 C 6.007812 -3.34375 6.671875 -3.078125 7.453125 -3.078125 Z M 7.453125 -3.078125 "/></g></g></g><g fill="#053a40" fill-opacity="1"><g transform="translate(279.812724, 22.41573)"><g><path d="M 8.828125 -11.96875 C 9.609375 -11.96875 10.3125 -11.765625 10.9375 -11.359375 C 11.5625 -10.960938 12.066406 -10.421875 12.453125 -9.734375 C 12.835938 -9.054688 13.03125 -8.285156 13.03125 -7.421875 L 13.03125 0 L 9.296875 0 L 9.296875 -6.8125 C 9.296875 -7.332031 9.125 -7.769531 8.78125 -8.125 C 8.4375 -8.476562 7.992188 -8.65625 7.453125 -8.65625 C 6.898438 -8.65625 6.429688 -8.476562 6.046875 -8.125 C 5.671875 -7.769531 5.484375 -7.332031 5.484375 -6.8125 L 5.484375 0 L 1.734375 0 L 1.734375 -11.734375 L 5.484375 -11.734375 L 5.484375 -10.296875 C 5.898438 -10.804688 6.394531 -11.210938 6.96875 -11.515625 C 7.539062 -11.816406 8.160156 -11.96875 8.828125 -11.96875 Z M 8.828125 -11.96875 "/></g></g></g><g fill="#053a40" fill-opacity="1"><g transform="translate(297.563891, 22.41573)"><g><path d="M 7.453125 -3.078125 C 8.054688 -3.097656 8.582031 -3.257812 9.03125 -3.5625 C 9.476562 -3.863281 9.800781 -4.257812 10 -4.75 L 13.875 -4.75 C 13.644531 -3.34375 12.992188 -2.175781 11.921875 -1.25 C 10.859375 -0.332031 9.492188 0.160156 7.828125 0.234375 L 7.15625 1.375 C 7.894531 1.238281 8.53125 1.378906 9.0625 1.796875 C 9.59375 2.222656 9.859375 2.796875 9.859375 3.515625 C 9.859375 4.242188 9.609375 4.859375 9.109375 5.359375 C 8.609375 5.867188 7.988281 6.125 7.25 6.125 C 6.644531 6.125 6.078125 5.941406 5.546875 5.578125 C 5.015625 5.222656 4.660156 4.800781 4.484375 4.3125 L 6.125 3.78125 C 6.226562 3.957031 6.390625 4.109375 6.609375 4.234375 C 6.835938 4.367188 7.050781 4.4375 7.25 4.4375 C 7.5 4.4375 7.710938 4.347656 7.890625 4.171875 C 8.066406 3.992188 8.15625 3.773438 8.15625 3.515625 C 8.15625 3.109375 7.976562 2.84375 7.625 2.71875 C 7.269531 2.601562 6.84375 2.6875 6.34375 2.96875 L 5.015625 2.203125 L 6.15625 0.140625 C 4.550781 -0.109375 3.273438 -0.785156 2.328125 -1.890625 C 1.378906 -2.992188 0.90625 -4.320312 0.90625 -5.875 C 0.90625 -7.039062 1.175781 -8.082031 1.71875 -9 C 2.269531 -9.925781 3.035156 -10.648438 4.015625 -11.171875 C 4.992188 -11.703125 6.140625 -11.96875 7.453125 -11.96875 C 9.210938 -11.96875 10.660156 -11.503906 11.796875 -10.578125 C 12.929688 -9.648438 13.625 -8.453125 13.875 -6.984375 L 10 -6.984375 C 9.800781 -7.492188 9.476562 -7.894531 9.03125 -8.1875 C 8.582031 -8.476562 8.054688 -8.632812 7.453125 -8.65625 C 6.648438 -8.632812 5.984375 -8.363281 5.453125 -7.84375 C 4.929688 -7.320312 4.671875 -6.664062 4.671875 -5.875 C 4.671875 -5.082031 4.929688 -4.421875 5.453125 -3.890625 C 5.984375 -3.367188 6.648438 -3.097656 7.453125 -3.078125 Z M 7.453125 -3.078125 "/></g></g></g><g fill="#053a40" fill-opacity="1"><g transform="translate(315.34436, 22.41573)"><g><path d="M 14.8125 -3.046875 L 15.34375 -3.046875 L 15.34375 0 C 15.207031 0.0625 15.054688 0.113281 14.890625 0.15625 C 14.722656 0.207031 14.539062 0.234375 14.34375 0.234375 C 13.5625 0.234375 12.859375 0.0546875 12.234375 -0.296875 C 11.609375 -0.660156 11.109375 -1.148438 10.734375 -1.765625 C 10.265625 -1.148438 9.691406 -0.660156 9.015625 -0.296875 C 8.347656 0.0546875 7.582031 0.234375 6.71875 0.234375 C 5.644531 0.234375 4.664062 -0.0351562 3.78125 -0.578125 C 2.90625 -1.128906 2.207031 -1.863281 1.6875 -2.78125 C 1.164062 -3.707031 0.90625 -4.738281 0.90625 -5.875 C 0.90625 -7 1.164062 -8.019531 1.6875 -8.9375 C 2.207031 -9.863281 2.90625 -10.597656 3.78125 -11.140625 C 4.664062 -11.691406 5.644531 -11.96875 6.71875 -11.96875 C 7.40625 -11.96875 8.023438 -11.851562 8.578125 -11.625 C 9.140625 -11.40625 9.632812 -11.097656 10.0625 -10.703125 L 10.0625 -11.734375 L 13.78125 -11.734375 L 13.78125 -4.1875 C 13.78125 -3.707031 13.890625 -3.394531 14.109375 -3.25 C 14.328125 -3.113281 14.5625 -3.046875 14.8125 -3.046875 Z M 7.453125 -3.078125 C 8.210938 -3.078125 8.863281 -3.34375 9.40625 -3.875 C 9.957031 -4.414062 10.234375 -5.082031 10.234375 -5.875 C 10.234375 -6.65625 9.957031 -7.3125 9.40625 -7.84375 C 8.863281 -8.382812 8.210938 -8.65625 7.453125 -8.65625 C 6.671875 -8.65625 6.007812 -8.382812 5.46875 -7.84375 C 4.9375 -7.3125 4.671875 -6.65625 4.671875 -5.875 C 4.671875 -5.082031 4.9375 -4.414062 5.46875 -3.875 C 6.007812 -3.34375 6.671875 -3.078125 7.453125 -3.078125 Z M 7.453125 -3.078125 "/></g></g></g><g fill="#053a40" fill-opacity="1"><g transform="translate(334.356146, 22.41573)"><g><path d="M 4.21875 -7.828125 C 3.675781 -7.828125 3.195312 -8.03125 2.78125 -8.4375 C 2.375 -8.851562 2.171875 -9.347656 2.171875 -9.921875 C 2.171875 -10.484375 2.375 -10.960938 2.78125 -11.359375 C 3.195312 -11.765625 3.675781 -11.96875 4.21875 -11.96875 C 4.789062 -11.96875 5.273438 -11.765625 5.671875 -11.359375 C 6.078125 -10.960938 6.28125 -10.484375 6.28125 -9.921875 C 6.28125 -9.347656 6.078125 -8.851562 5.671875 -8.4375 C 5.273438 -8.03125 4.789062 -7.828125 4.21875 -7.828125 Z M 4.21875 0.234375 C 3.675781 0.234375 3.195312 0.03125 2.78125 -0.375 C 2.375 -0.789062 2.171875 -1.269531 2.171875 -1.8125 C 2.171875 -2.382812 2.375 -2.875 2.78125 -3.28125 C 3.195312 -3.695312 3.675781 -3.90625 4.21875 -3.90625 C 4.789062 -3.90625 5.273438 -3.695312 5.671875 -3.28125 C 6.078125 -2.875 6.28125 -2.382812 6.28125 -1.8125 C 6.28125 -1.269531 6.078125 -0.789062 5.671875 -0.375 C 5.273438 0.03125 4.789062 0.234375 4.21875 0.234375 Z M 4.21875 0.234375 "/></g></g></g><g fill="#053a40" fill-opacity="1"><g transform="translate(0.161272, 54.579587)"><g><path d="M 7.453125 0.234375 C 6.140625 0.234375 4.992188 -0.0234375 4.015625 -0.546875 C 3.035156 -1.078125 2.269531 -1.800781 1.71875 -2.71875 C 1.175781 -3.644531 0.90625 -4.695312 0.90625 -5.875 C 0.90625 -7.039062 1.175781 -8.082031 1.71875 -9 C 2.269531 -9.925781 3.035156 -10.648438 4.015625 -11.171875 C 4.992188 -11.703125 6.140625 -11.96875 7.453125 -11.96875 C 9.210938 -11.96875 10.660156 -11.503906 11.796875 -10.578125 C 12.929688 -9.648438 13.625 -8.453125 13.875 -6.984375 L 10 -6.984375 C 9.800781 -7.492188 9.476562 -7.894531 9.03125 -8.1875 C 8.582031 -8.476562 8.054688 -8.632812 7.453125 -8.65625 C 6.648438 -8.632812 5.984375 -8.363281 5.453125 -7.84375 C 4.929688 -7.320312 4.671875 -6.664062 4.671875 -5.875 C 4.671875 -5.082031 4.929688 -4.421875 5.453125 -3.890625 C 5.984375 -3.367188 6.648438 -3.097656 7.453125 -3.078125 C 8.054688 -3.097656 8.582031 -3.257812 9.03125 -3.5625 C 9.476562 -3.863281 9.800781 -4.257812 10 -4.75 L 13.875 -4.75 C 13.625 -3.28125 12.929688 -2.082031 11.796875 -1.15625 C 10.660156 -0.226562 9.210938 0.234375 7.453125 0.234375 Z M 7.453125 0.234375 "/></g></g></g><g fill="#053a40" fill-opacity="1"><g transform="translate(17.941759, 54.579587)"><g><path d="M 14.8125 -3.046875 L 15.34375 -3.046875 L 15.34375 0 C 15.207031 0.0625 15.054688 0.113281 14.890625 0.15625 C 14.722656 0.207031 14.539062 0.234375 14.34375 0.234375 C 13.5625 0.234375 12.859375 0.0546875 12.234375 -0.296875 C 11.609375 -0.660156 11.109375 -1.148438 10.734375 -1.765625 C 10.265625 -1.148438 9.691406 -0.660156 9.015625 -0.296875 C 8.347656 0.0546875 7.582031 0.234375 6.71875 0.234375 C 5.644531 0.234375 4.664062 -0.0351562 3.78125 -0.578125 C 2.90625 -1.128906 2.207031 -1.863281 1.6875 -2.78125 C 1.164062 -3.707031 0.90625 -4.738281 0.90625 -5.875 C 0.90625 -7 1.164062 -8.019531 1.6875 -8.9375 C 2.207031 -9.863281 2.90625 -10.597656 3.78125 -11.140625 C 4.664062 -11.691406 5.644531 -11.96875 6.71875 -11.96875 C 7.40625 -11.96875 8.023438 -11.851562 8.578125 -11.625 C 9.140625 -11.40625 9.632812 -11.097656 10.0625 -10.703125 L 10.0625 -11.734375 L 13.78125 -11.734375 L 13.78125 -4.1875 C 13.78125 -3.707031 13.890625 -3.394531 14.109375 -3.25 C 14.328125 -3.113281 14.5625 -3.046875 14.8125 -3.046875 Z M 7.453125 -3.078125 C 8.210938 -3.078125 8.863281 -3.34375 9.40625 -3.875 C 9.957031 -4.414062 10.234375 -5.082031 10.234375 -5.875 C 10.234375 -6.65625 9.957031 -7.3125 9.40625 -7.84375 C 8.863281 -8.382812 8.210938 -8.65625 7.453125 -8.65625 C 6.671875 -8.65625 6.007812 -8.382812 5.46875 -7.84375 C 4.9375 -7.3125 4.671875 -6.65625 4.671875 -5.875 C 4.671875 -5.082031 4.9375 -4.414062 5.46875 -3.875 C 6.007812 -3.34375 6.671875 -3.078125 7.453125 -3.078125 Z M 7.453125 -3.078125 "/></g></g></g><g fill="#053a40" fill-opacity="1"><g transform="translate(36.953526, 54.579587)"><g><path d="M 10.0625 -20.09375 L 13.78125 -20.09375 L 13.78125 0 L 10.0625 0.03125 L 10.0625 -1.03125 C 9.632812 -0.632812 9.140625 -0.320312 8.578125 -0.09375 C 8.023438 0.125 7.40625 0.234375 6.71875 0.234375 C 5.644531 0.234375 4.664062 -0.0351562 3.78125 -0.578125 C 2.90625 -1.128906 2.207031 -1.863281 1.6875 -2.78125 C 1.164062 -3.707031 0.90625 -4.738281 0.90625 -5.875 C 0.90625 -7 1.164062 -8.019531 1.6875 -8.9375 C 2.207031 -9.863281 2.90625 -10.597656 3.78125 -11.140625 C 4.664062 -11.691406 5.644531 -11.96875 6.71875 -11.96875 C 7.40625 -11.96875 8.023438 -11.851562 8.578125 -11.625 C 9.140625 -11.40625 9.632812 -11.097656 10.0625 -10.703125 Z M 7.453125 -3.078125 C 8.210938 -3.078125 8.863281 -3.34375 9.40625 -3.875 C 9.957031 -4.414062 10.234375 -5.082031 10.234375 -5.875 C 10.234375 -6.65625 9.957031 -7.3125 9.40625 -7.84375 C 8.863281 -8.382812 8.210938 -8.65625 7.453125 -8.65625 C 6.671875 -8.65625 6.007812 -8.382812 5.46875 -7.84375 C 4.9375 -7.3125 4.671875 -6.65625 4.671875 -5.875 C 4.671875 -5.082031 4.9375 -4.414062 5.46875 -3.875 C 6.007812 -3.34375 6.671875 -3.078125 7.453125 -3.078125 Z M 7.453125 -3.078125 "/></g></g></g><g fill="#053a40" fill-opacity="1"><g transform="translate(55.701453, 54.579587)"><g><path d="M 14.8125 -3.046875 L 15.34375 -3.046875 L 15.34375 0 C 15.207031 0.0625 15.054688 0.113281 14.890625 0.15625 C 14.722656 0.207031 14.539062 0.234375 14.34375 0.234375 C 13.5625 0.234375 12.859375 0.0546875 12.234375 -0.296875 C 11.609375 -0.660156 11.109375 -1.148438 10.734375 -1.765625 C 10.265625 -1.148438 9.691406 -0.660156 9.015625 -0.296875 C 8.347656 0.0546875 7.582031 0.234375 6.71875 0.234375 C 5.644531 0.234375 4.664062 -0.0351562 3.78125 -0.578125 C 2.90625 -1.128906 2.207031 -1.863281 1.6875 -2.78125 C 1.164062 -3.707031 0.90625 -4.738281 0.90625 -5.875 C 0.90625 -7 1.164062 -8.019531 1.6875 -8.9375 C 2.207031 -9.863281 2.90625 -10.597656 3.78125 -11.140625 C 4.664062 -11.691406 5.644531 -11.96875 6.71875 -11.96875 C 7.40625 -11.96875 8.023438 -11.851562 8.578125 -11.625 C 9.140625 -11.40625 9.632812 -11.097656 10.0625 -10.703125 L 10.0625 -11.734375 L 13.78125 -11.734375 L 13.78125 -4.1875 C 13.78125 -3.707031 13.890625 -3.394531 14.109375 -3.25 C 14.328125 -3.113281 14.5625 -3.046875 14.8125 -3.046875 Z M 7.453125 -3.078125 C 8.210938 -3.078125 8.863281 -3.34375 9.40625 -3.875 C 9.957031 -4.414062 10.234375 -5.082031 10.234375 -5.875 C 10.234375 -6.65625 9.957031 -7.3125 9.40625 -7.84375 C 8.863281 -8.382812 8.210938 -8.65625 7.453125 -8.65625 C 6.671875 -8.65625 6.007812 -8.382812 5.46875 -7.84375 C 4.9375 -7.3125 4.671875 -6.65625 4.671875 -5.875 C 4.671875 -5.082031 4.9375 -4.414062 5.46875 -3.875 C 6.007812 -3.34375 6.671875 -3.078125 7.453125 -3.078125 Z M 7.453125 -3.078125 "/></g></g></g><g fill="#053a40" fill-opacity="1"><g transform="translate(74.71322, 54.579587)"><g/></g></g><g fill="#053a40" fill-opacity="1"><g transform="translate(84.988822, 54.579587)"><g><path d="M 7.453125 0.234375 C 6.140625 0.234375 4.992188 -0.0234375 4.015625 -0.546875 C 3.035156 -1.078125 2.269531 -1.800781 1.71875 -2.71875 C 1.175781 -3.644531 0.90625 -4.695312 0.90625 -5.875 C 0.90625 -7.039062 1.175781 -8.082031 1.71875 -9 C 2.269531 -9.925781 3.035156 -10.648438 4.015625 -11.171875 C 4.992188 -11.703125 6.140625 -11.96875 7.453125 -11.96875 C 9.210938 -11.96875 10.660156 -11.503906 11.796875 -10.578125 C 12.929688 -9.648438 13.625 -8.453125 13.875 -6.984375 L 10 -6.984375 C 9.800781 -7.492188 9.476562 -7.894531 9.03125 -8.1875 C 8.582031 -8.476562 8.054688 -8.632812 7.453125 -8.65625 C 6.648438 -8.632812 5.984375 -8.363281 5.453125 -7.84375 C 4.929688 -7.320312 4.671875 -6.664062 4.671875 -5.875 C 4.671875 -5.082031 4.929688 -4.421875 5.453125 -3.890625 C 5.984375 -3.367188 6.648438 -3.097656 7.453125 -3.078125 C 8.054688 -3.097656 8.582031 -3.257812 9.03125 -3.5625 C 9.476562 -3.863281 9.800781 -4.257812 10 -4.75 L 13.875 -4.75 C 13.625 -3.28125 12.929688 -2.082031 11.796875 -1.15625 C 10.660156 -0.226562 9.210938 0.234375 7.453125 0.234375 Z M 7.453125 0.234375 "/></g></g></g><g fill="#053a40" fill-opacity="1"><g transform="translate(102.769309, 54.579587)"><g><path d="M 8.765625 -11.96875 C 9.566406 -11.96875 10.285156 -11.765625 10.921875 -11.359375 C 11.554688 -10.960938 12.066406 -10.421875 12.453125 -9.734375 C 12.835938 -9.054688 13.03125 -8.285156 13.03125 -7.421875 L 13.03125 0 L 9.265625 0 L 9.265625 -6.8125 C 9.265625 -7.3125 9.097656 -7.742188 8.765625 -8.109375 C 8.429688 -8.472656 8.003906 -8.65625 7.484375 -8.65625 C 6.910156 -8.65625 6.429688 -8.441406 6.046875 -8.015625 C 5.671875 -7.597656 5.484375 -7.132812 5.484375 -6.625 L 5.484375 0 L 1.734375 0 L 1.734375 -20.09375 L 5.484375 -20.09375 L 5.484375 -10.421875 C 5.898438 -10.898438 6.390625 -11.273438 6.953125 -11.546875 C 7.515625 -11.828125 8.117188 -11.96875 8.765625 -11.96875 Z M 8.765625 -11.96875 "/></g></g></g><g fill="#053a40" fill-opacity="1"><g transform="translate(120.491175, 54.579587)"><g><path d="M 14.8125 -3.046875 L 15.34375 -3.046875 L 15.34375 0 C 15.207031 0.0625 15.054688 0.113281 14.890625 0.15625 C 14.722656 0.207031 14.539062 0.234375 14.34375 0.234375 C 13.5625 0.234375 12.859375 0.0546875 12.234375 -0.296875 C 11.609375 -0.660156 11.109375 -1.148438 10.734375 -1.765625 C 10.265625 -1.148438 9.691406 -0.660156 9.015625 -0.296875 C 8.347656 0.0546875 7.582031 0.234375 6.71875 0.234375 C 5.644531 0.234375 4.664062 -0.0351562 3.78125 -0.578125 C 2.90625 -1.128906 2.207031 -1.863281 1.6875 -2.78125 C 1.164062 -3.707031 0.90625 -4.738281 0.90625 -5.875 C 0.90625 -7 1.164062 -8.019531 1.6875 -8.9375 C 2.207031 -9.863281 2.90625 -10.597656 3.78125 -11.140625 C 4.664062 -11.691406 5.644531 -11.96875 6.71875 -11.96875 C 7.40625 -11.96875 8.023438 -11.851562 8.578125 -11.625 C 9.140625 -11.40625 9.632812 -11.097656 10.0625 -10.703125 L 10.0625 -11.734375 L 13.78125 -11.734375 L 13.78125 -4.1875 C 13.78125 -3.707031 13.890625 -3.394531 14.109375 -3.25 C 14.328125 -3.113281 14.5625 -3.046875 14.8125 -3.046875 Z M 7.453125 -3.078125 C 8.210938 -3.078125 8.863281 -3.34375 9.40625 -3.875 C 9.957031 -4.414062 10.234375 -5.082031 10.234375 -5.875 C 10.234375 -6.65625 9.957031 -7.3125 9.40625 -7.84375 C 8.863281 -8.382812 8.210938 -8.65625 7.453125 -8.65625 C 6.671875 -8.65625 6.007812 -8.382812 5.46875 -7.84375 C 4.9375 -7.3125 4.671875 -6.65625 4.671875 -5.875 C 4.671875 -5.082031 4.9375 -4.414062 5.46875 -3.875 C 6.007812 -3.34375 6.671875 -3.078125 7.453125 -3.078125 Z M 7.453125 -3.078125 "/></g></g></g><g fill="#053a40" fill-opacity="1"><g transform="translate(139.502942, 54.579587)"><g><path d="M 15.71875 -11.96875 C 17.007812 -11.96875 18.003906 -11.550781 18.703125 -10.71875 C 19.398438 -9.882812 19.75 -8.785156 19.75 -7.421875 L 19.75 0 L 16.015625 0 L 16.015625 -6.8125 C 16.015625 -7.3125 15.851562 -7.742188 15.53125 -8.109375 C 15.207031 -8.472656 14.789062 -8.65625 14.28125 -8.65625 C 13.71875 -8.65625 13.296875 -8.453125 13.015625 -8.046875 C 12.742188 -7.648438 12.609375 -7.238281 12.609375 -6.8125 L 12.609375 0 L 8.859375 0 L 8.859375 -6.8125 C 8.859375 -7.3125 8.703125 -7.742188 8.390625 -8.109375 C 8.078125 -8.472656 7.664062 -8.65625 7.15625 -8.65625 C 6.59375 -8.65625 6.171875 -8.453125 5.890625 -8.046875 C 5.617188 -7.648438 5.484375 -7.238281 5.484375 -6.8125 L 5.484375 0 L 1.734375 0 L 1.734375 -11.734375 L 5.484375 -11.734375 L 5.484375 -10.296875 C 5.878906 -10.804688 6.34375 -11.210938 6.875 -11.515625 C 7.414062 -11.816406 8.019531 -11.96875 8.6875 -11.96875 C 9.425781 -11.96875 10.082031 -11.78125 10.65625 -11.40625 C 11.238281 -11.039062 11.695312 -10.546875 12.03125 -9.921875 C 12.394531 -10.566406 12.890625 -11.066406 13.515625 -11.421875 C 14.148438 -11.785156 14.882812 -11.96875 15.71875 -11.96875 Z M 15.71875 -11.96875 "/></g></g></g><g fill="#053a40" fill-opacity="1"><g transform="translate(163.967474, 54.579587)"><g><path d="M 14.8125 -3.046875 L 15.34375 -3.046875 L 15.34375 0 C 15.207031 0.0625 15.054688 0.113281 14.890625 0.15625 C 14.722656 0.207031 14.539062 0.234375 14.34375 0.234375 C 13.5625 0.234375 12.859375 0.0546875 12.234375 -0.296875 C 11.609375 -0.660156 11.109375 -1.148438 10.734375 -1.765625 C 10.265625 -1.148438 9.691406 -0.660156 9.015625 -0.296875 C 8.347656 0.0546875 7.582031 0.234375 6.71875 0.234375 C 5.644531 0.234375 4.664062 -0.0351562 3.78125 -0.578125 C 2.90625 -1.128906 2.207031 -1.863281 1.6875 -2.78125 C 1.164062 -3.707031 0.90625 -4.738281 0.90625 -5.875 C 0.90625 -7 1.164062 -8.019531 1.6875 -8.9375 C 2.207031 -9.863281 2.90625 -10.597656 3.78125 -11.140625 C 4.664062 -11.691406 5.644531 -11.96875 6.71875 -11.96875 C 7.40625 -11.96875 8.023438 -11.851562 8.578125 -11.625 C 9.140625 -11.40625 9.632812 -11.097656 10.0625 -10.703125 L 10.0625 -11.734375 L 13.78125 -11.734375 L 13.78125 -4.1875 C 13.78125 -3.707031 13.890625 -3.394531 14.109375 -3.25 C 14.328125 -3.113281 14.5625 -3.046875 14.8125 -3.046875 Z M 7.453125 -3.078125 C 8.210938 -3.078125 8.863281 -3.34375 9.40625 -3.875 C 9.957031 -4.414062 10.234375 -5.082031 10.234375 -5.875 C 10.234375 -6.65625 9.957031 -7.3125 9.40625 -7.84375 C 8.863281 -8.382812 8.210938 -8.65625 7.453125 -8.65625 C 6.671875 -8.65625 6.007812 -8.382812 5.46875 -7.84375 C 4.9375 -7.3125 4.671875 -6.65625 4.671875 -5.875 C 4.671875 -5.082031 4.9375 -4.414062 5.46875 -3.875 C 6.007812 -3.34375 6.671875 -3.078125 7.453125 -3.078125 Z M 7.453125 -3.078125 "/></g></g></g><g fill="#053a40" fill-opacity="1"><g transform="translate(182.979241, 54.579587)"><g><path d="M 10.0625 -20.09375 L 13.78125 -20.09375 L 13.78125 0 L 10.0625 0.03125 L 10.0625 -1.03125 C 9.632812 -0.632812 9.140625 -0.320312 8.578125 -0.09375 C 8.023438 0.125 7.40625 0.234375 6.71875 0.234375 C 5.644531 0.234375 4.664062 -0.0351562 3.78125 -0.578125 C 2.90625 -1.128906 2.207031 -1.863281 1.6875 -2.78125 C 1.164062 -3.707031 0.90625 -4.738281 0.90625 -5.875 C 0.90625 -7 1.164062 -8.019531 1.6875 -8.9375 C 2.207031 -9.863281 2.90625 -10.597656 3.78125 -11.140625 C 4.664062 -11.691406 5.644531 -11.96875 6.71875 -11.96875 C 7.40625 -11.96875 8.023438 -11.851562 8.578125 -11.625 C 9.140625 -11.40625 9.632812 -11.097656 10.0625 -10.703125 Z M 7.453125 -3.078125 C 8.210938 -3.078125 8.863281 -3.34375 9.40625 -3.875 C 9.957031 -4.414062 10.234375 -5.082031 10.234375 -5.875 C 10.234375 -6.65625 9.957031 -7.3125 9.40625 -7.84375 C 8.863281 -8.382812 8.210938 -8.65625 7.453125 -8.65625 C 6.671875 -8.65625 6.007812 -8.382812 5.46875 -7.84375 C 4.9375 -7.3125 4.671875 -6.65625 4.671875 -5.875 C 4.671875 -5.082031 4.9375 -4.414062 5.46875 -3.875 C 6.007812 -3.34375 6.671875 -3.078125 7.453125 -3.078125 Z M 7.453125 -3.078125 "/></g></g></g><g fill="#053a40" fill-opacity="1"><g transform="translate(201.727167, 54.579587)"><g><path d="M 7.453125 0.234375 C 6.140625 0.234375 4.992188 -0.0234375 4.015625 -0.546875 C 3.035156 -1.078125 2.269531 -1.800781 1.71875 -2.71875 C 1.175781 -3.644531 0.90625 -4.695312 0.90625 -5.875 C 0.90625 -7.039062 1.175781 -8.082031 1.71875 -9 C 2.269531 -9.925781 3.035156 -10.648438 4.015625 -11.171875 C 4.992188 -11.703125 6.140625 -11.96875 7.453125 -11.96875 C 8.765625 -11.96875 9.90625 -11.703125 10.875 -11.171875 C 11.851562 -10.648438 12.613281 -9.925781 13.15625 -9 C 13.695312 -8.082031 13.96875 -7.039062 13.96875 -5.875 C 13.96875 -4.695312 13.695312 -3.644531 13.15625 -2.71875 C 12.613281 -1.800781 11.851562 -1.078125 10.875 -0.546875 C 9.90625 -0.0234375 8.765625 0.234375 7.453125 0.234375 Z M 7.453125 -3.078125 C 8.253906 -3.097656 8.914062 -3.367188 9.4375 -3.890625 C 9.96875 -4.421875 10.234375 -5.082031 10.234375 -5.875 C 10.234375 -6.664062 9.96875 -7.320312 9.4375 -7.84375 C 8.914062 -8.363281 8.253906 -8.632812 7.453125 -8.65625 C 6.648438 -8.632812 5.984375 -8.363281 5.453125 -7.84375 C 4.929688 -7.320312 4.671875 -6.664062 4.671875 -5.875 C 4.671875 -5.082031 4.929688 -4.421875 5.453125 -3.890625 C 5.984375 -3.367188 6.648438 -3.097656 7.453125 -3.078125 Z M 7.453125 -3.078125 "/></g></g></g><g fill="#053a40" fill-opacity="1"><g transform="translate(219.859454, 54.579587)"><g/></g></g><g fill="#053a40" fill-opacity="1"><g transform="translate(230.135056, 54.579587)"><g><path d="M 12.171875 -17.625 L 8.5 -13.265625 L 6.046875 -13.265625 L 8.625 -17.625 Z M 13.671875 -5.890625 L 13.671875 -5.25 L 4.6875 -5.25 C 4.769531 -4.40625 5.035156 -3.742188 5.484375 -3.265625 C 5.929688 -2.785156 6.578125 -2.546875 7.421875 -2.546875 C 8.710938 -2.546875 9.535156 -3.046875 9.890625 -4.046875 L 13.5 -4.046875 C 13.195312 -2.773438 12.523438 -1.742188 11.484375 -0.953125 C 10.441406 -0.160156 9.109375 0.234375 7.484375 0.234375 C 6.171875 0.234375 5.019531 -0.0195312 4.03125 -0.53125 C 3.039062 -1.039062 2.269531 -1.753906 1.71875 -2.671875 C 1.175781 -3.585938 0.90625 -4.65625 0.90625 -5.875 C 0.90625 -7.101562 1.175781 -8.175781 1.71875 -9.09375 C 2.269531 -10.007812 3.035156 -10.722656 4.015625 -11.234375 C 4.992188 -11.742188 6.109375 -12 7.359375 -12 C 8.628906 -12 9.734375 -11.742188 10.671875 -11.234375 C 11.617188 -10.722656 12.351562 -10.015625 12.875 -9.109375 C 13.40625 -8.203125 13.671875 -7.128906 13.671875 -5.890625 Z M 7.421875 -9.125 C 6.753906 -9.125 6.21875 -8.976562 5.8125 -8.6875 C 5.414062 -8.40625 5.117188 -8.015625 4.921875 -7.515625 L 9.796875 -7.515625 C 9.597656 -8.015625 9.304688 -8.40625 8.921875 -8.6875 C 8.546875 -8.976562 8.046875 -9.125 7.421875 -9.125 Z M 7.421875 -9.125 "/></g></g></g><g fill="#053a40" fill-opacity="1"><g transform="translate(247.915543, 54.579587)"><g/></g></g><g fill="#053a40" fill-opacity="1"><g transform="translate(258.191144, 54.579587)"><g><path d="M 6.984375 0.234375 C 5.203125 0.234375 3.835938 -0.191406 2.890625 -1.046875 C 1.941406 -1.910156 1.46875 -3.054688 1.46875 -4.484375 L 1.46875 -11.734375 L 5.21875 -11.734375 L 5.21875 -4.984375 C 5.21875 -4.441406 5.390625 -3.988281 5.734375 -3.625 C 6.078125 -3.257812 6.492188 -3.078125 6.984375 -3.078125 C 7.492188 -3.078125 7.914062 -3.257812 8.25 -3.625 C 8.59375 -3.988281 8.765625 -4.441406 8.765625 -4.984375 L 8.765625 -11.734375 L 12.5 -11.734375 L 12.5 -4.484375 C 12.5 -3.054688 12.023438 -1.910156 11.078125 -1.046875 C 10.128906 -0.191406 8.765625 0.234375 6.984375 0.234375 Z M 6.984375 0.234375 "/></g></g></g><g fill="#053a40" fill-opacity="1"><g transform="translate(275.414631, 54.579587)"><g><path d="M 15.71875 -11.96875 C 17.007812 -11.96875 18.003906 -11.550781 18.703125 -10.71875 C 19.398438 -9.882812 19.75 -8.785156 19.75 -7.421875 L 19.75 0 L 16.015625 0 L 16.015625 -6.8125 C 16.015625 -7.3125 15.851562 -7.742188 15.53125 -8.109375 C 15.207031 -8.472656 14.789062 -8.65625 14.28125 -8.65625 C 13.71875 -8.65625 13.296875 -8.453125 13.015625 -8.046875 C 12.742188 -7.648438 12.609375 -7.238281 12.609375 -6.8125 L 12.609375 0 L 8.859375 0 L 8.859375 -6.8125 C 8.859375 -7.3125 8.703125 -7.742188 8.390625 -8.109375 C 8.078125 -8.472656 7.664062 -8.65625 7.15625 -8.65625 C 6.59375 -8.65625 6.171875 -8.453125 5.890625 -8.046875 C 5.617188 -7.648438 5.484375 -7.238281 5.484375 -6.8125 L 5.484375 0 L 1.734375 0 L 1.734375 -11.734375 L 5.484375 -11.734375 L 5.484375 -10.296875 C 5.878906 -10.804688 6.34375 -11.210938 6.875 -11.515625 C 7.414062 -11.816406 8.019531 -11.96875 8.6875 -11.96875 C 9.425781 -11.96875 10.082031 -11.78125 10.65625 -11.40625 C 11.238281 -11.039062 11.695312 -10.546875 12.03125 -9.921875 C 12.394531 -10.566406 12.890625 -11.066406 13.515625 -11.421875 C 14.148438 -11.785156 14.882812 -11.96875 15.71875 -11.96875 Z M 15.71875 -11.96875 "/></g></g></g><g fill="#053a40" fill-opacity="1"><g transform="translate(299.879163, 54.579587)"><g><path d="M 14.8125 -3.046875 L 15.34375 -3.046875 L 15.34375 0 C 15.207031 0.0625 15.054688 0.113281 14.890625 0.15625 C 14.722656 0.207031 14.539062 0.234375 14.34375 0.234375 C 13.5625 0.234375 12.859375 0.0546875 12.234375 -0.296875 C 11.609375 -0.660156 11.109375 -1.148438 10.734375 -1.765625 C 10.265625 -1.148438 9.691406 -0.660156 9.015625 -0.296875 C 8.347656 0.0546875 7.582031 0.234375 6.71875 0.234375 C 5.644531 0.234375 4.664062 -0.0351562 3.78125 -0.578125 C 2.90625 -1.128906 2.207031 -1.863281 1.6875 -2.78125 C 1.164062 -3.707031 0.90625 -4.738281 0.90625 -5.875 C 0.90625 -7 1.164062 -8.019531 1.6875 -8.9375 C 2.207031 -9.863281 2.90625 -10.597656 3.78125 -11.140625 C 4.664062 -11.691406 5.644531 -11.96875 6.71875 -11.96875 C 7.40625 -11.96875 8.023438 -11.851562 8.578125 -11.625 C 9.140625 -11.40625 9.632812 -11.097656 10.0625 -10.703125 L 10.0625 -11.734375 L 13.78125 -11.734375 L 13.78125 -4.1875 C 13.78125 -3.707031 13.890625 -3.394531 14.109375 -3.25 C 14.328125 -3.113281 14.5625 -3.046875 14.8125 -3.046875 Z M 7.453125 -3.078125 C 8.210938 -3.078125 8.863281 -3.34375 9.40625 -3.875 C 9.957031 -4.414062 10.234375 -5.082031 10.234375 -5.875 C 10.234375 -6.65625 9.957031 -7.3125 9.40625 -7.84375 C 8.863281 -8.382812 8.210938 -8.65625 7.453125 -8.65625 C 6.671875 -8.65625 6.007812 -8.382812 5.46875 -7.84375 C 4.9375 -7.3125 4.671875 -6.65625 4.671875 -5.875 C 4.671875 -5.082031 4.9375 -4.414062 5.46875 -3.875 C 6.007812 -3.34375 6.671875 -3.078125 7.453125 -3.078125 Z M 7.453125 -3.078125 "/></g></g></g><g clip-path="url(#0e8bea28d4)"><g fill="#053a40" fill-opacity="1"><g transform="translate(0.161272, 86.743445)"><g><path d="M 8.828125 -11.96875 C 9.898438 -11.96875 10.867188 -11.691406 11.734375 -11.140625 C 12.609375 -10.597656 13.304688 -9.863281 13.828125 -8.9375 C 14.347656 -8.019531 14.609375 -7 14.609375 -5.875 C 14.609375 -4.738281 14.347656 -3.707031 13.828125 -2.78125 C 13.304688 -1.863281 12.609375 -1.128906 11.734375 -0.578125 C 10.867188 -0.0351562 9.898438 0.234375 8.828125 0.234375 C 8.160156 0.234375 7.546875 0.125 6.984375 -0.09375 C 6.429688 -0.320312 5.929688 -0.632812 5.484375 -1.03125 L 5.484375 7.0625 L 1.734375 7.046875 L 1.734375 -11.734375 L 5.484375 -11.703125 L 5.484375 -10.703125 C 5.929688 -11.097656 6.429688 -11.40625 6.984375 -11.625 C 7.546875 -11.851562 8.160156 -11.96875 8.828125 -11.96875 Z M 8.09375 -3.078125 C 8.875 -3.078125 9.535156 -3.34375 10.078125 -3.875 C 10.617188 -4.414062 10.890625 -5.082031 10.890625 -5.875 C 10.890625 -6.65625 10.617188 -7.3125 10.078125 -7.84375 C 9.535156 -8.382812 8.875 -8.65625 8.09375 -8.65625 C 7.3125 -8.65625 6.648438 -8.382812 6.109375 -7.84375 C 5.578125 -7.3125 5.3125 -6.65625 5.3125 -5.875 C 5.3125 -5.082031 5.578125 -4.414062 6.109375 -3.875 C 6.648438 -3.34375 7.3125 -3.078125 8.09375 -3.078125 Z M 8.09375 -3.078125 "/></g></g></g></g><g fill="#053a40" fill-opacity="1"><g transform="translate(18.909199, 86.743445)"><g><path d="M 8.765625 -11.96875 C 8.941406 -11.96875 9.113281 -11.957031 9.28125 -11.9375 C 9.445312 -11.914062 9.597656 -11.890625 9.734375 -11.859375 L 9.734375 -8.53125 C 9.597656 -8.570312 9.4375 -8.601562 9.25 -8.625 C 9.070312 -8.644531 8.875 -8.65625 8.65625 -8.65625 C 7.738281 -8.65625 6.976562 -8.390625 6.375 -7.859375 C 5.78125 -7.328125 5.484375 -6.578125 5.484375 -5.609375 L 5.484375 0 L 1.734375 0 L 1.734375 -11.734375 L 5.484375 -11.734375 L 5.484375 -10.125 C 5.878906 -10.6875 6.351562 -11.132812 6.90625 -11.46875 C 7.46875 -11.800781 8.085938 -11.96875 8.765625 -11.96875 Z M 8.765625 -11.96875 "/></g></g></g><g fill="#053a40" fill-opacity="1"><g transform="translate(31.823242, 86.743445)"><g><path d="M 7.453125 0.234375 C 6.140625 0.234375 4.992188 -0.0234375 4.015625 -0.546875 C 3.035156 -1.078125 2.269531 -1.800781 1.71875 -2.71875 C 1.175781 -3.644531 0.90625 -4.695312 0.90625 -5.875 C 0.90625 -7.039062 1.175781 -8.082031 1.71875 -9 C 2.269531 -9.925781 3.035156 -10.648438 4.015625 -11.171875 C 4.992188 -11.703125 6.140625 -11.96875 7.453125 -11.96875 C 8.765625 -11.96875 9.90625 -11.703125 10.875 -11.171875 C 11.851562 -10.648438 12.613281 -9.925781 13.15625 -9 C 13.695312 -8.082031 13.96875 -7.039062 13.96875 -5.875 C 13.96875 -4.695312 13.695312 -3.644531 13.15625 -2.71875 C 12.613281 -1.800781 11.851562 -1.078125 10.875 -0.546875 C 9.90625 -0.0234375 8.765625 0.234375 7.453125 0.234375 Z M 7.453125 -3.078125 C 8.253906 -3.097656 8.914062 -3.367188 9.4375 -3.890625 C 9.96875 -4.421875 10.234375 -5.082031 10.234375 -5.875 C 10.234375 -6.664062 9.96875 -7.320312 9.4375 -7.84375 C 8.914062 -8.363281 8.253906 -8.632812 7.453125 -8.65625 C 6.648438 -8.632812 5.984375 -8.363281 5.453125 -7.84375 C 4.929688 -7.320312 4.671875 -6.664062 4.671875 -5.875 C 4.671875 -5.082031 4.929688 -4.421875 5.453125 -3.890625 C 5.984375 -3.367188 6.648438 -3.097656 7.453125 -3.078125 Z M 7.453125 -3.078125 "/></g></g></g><g fill="#053a40" fill-opacity="1"><g transform="translate(49.955528, 86.743445)"><g><path d="M 15.71875 -11.96875 C 17.007812 -11.96875 18.003906 -11.550781 18.703125 -10.71875 C 19.398438 -9.882812 19.75 -8.785156 19.75 -7.421875 L 19.75 0 L 16.015625 0 L 16.015625 -6.8125 C 16.015625 -7.3125 15.851562 -7.742188 15.53125 -8.109375 C 15.207031 -8.472656 14.789062 -8.65625 14.28125 -8.65625 C 13.71875 -8.65625 13.296875 -8.453125 13.015625 -8.046875 C 12.742188 -7.648438 12.609375 -7.238281 12.609375 -6.8125 L 12.609375 0 L 8.859375 0 L 8.859375 -6.8125 C 8.859375 -7.3125 8.703125 -7.742188 8.390625 -8.109375 C 8.078125 -8.472656 7.664062 -8.65625 7.15625 -8.65625 C 6.59375 -8.65625 6.171875 -8.453125 5.890625 -8.046875 C 5.617188 -7.648438 5.484375 -7.238281 5.484375 -6.8125 L 5.484375 0 L 1.734375 0 L 1.734375 -11.734375 L 5.484375 -11.734375 L 5.484375 -10.296875 C 5.878906 -10.804688 6.34375 -11.210938 6.875 -11.515625 C 7.414062 -11.816406 8.019531 -11.96875 8.6875 -11.96875 C 9.425781 -11.96875 10.082031 -11.78125 10.65625 -11.40625 C 11.238281 -11.039062 11.695312 -10.546875 12.03125 -9.921875 C 12.394531 -10.566406 12.890625 -11.066406 13.515625 -11.421875 C 14.148438 -11.785156 14.882812 -11.96875 15.71875 -11.96875 Z M 15.71875 -11.96875 "/></g></g></g><g fill="#053a40" fill-opacity="1"><g transform="translate(74.42006, 86.743445)"><g><path d="M 13.671875 -5.890625 L 13.671875 -5.25 L 4.6875 -5.25 C 4.769531 -4.40625 5.035156 -3.742188 5.484375 -3.265625 C 5.929688 -2.785156 6.578125 -2.546875 7.421875 -2.546875 C 8.710938 -2.546875 9.535156 -3.046875 9.890625 -4.046875 L 13.5 -4.046875 C 13.195312 -2.773438 12.523438 -1.742188 11.484375 -0.953125 C 10.441406 -0.160156 9.109375 0.234375 7.484375 0.234375 C 6.171875 0.234375 5.019531 -0.0195312 4.03125 -0.53125 C 3.039062 -1.039062 2.269531 -1.753906 1.71875 -2.671875 C 1.175781 -3.585938 0.90625 -4.65625 0.90625 -5.875 C 0.90625 -7.101562 1.175781 -8.175781 1.71875 -9.09375 C 2.269531 -10.007812 3.035156 -10.722656 4.015625 -11.234375 C 4.992188 -11.742188 6.109375 -12 7.359375 -12 C 8.628906 -12 9.734375 -11.742188 10.671875 -11.234375 C 11.617188 -10.722656 12.351562 -10.015625 12.875 -9.109375 C 13.40625 -8.203125 13.671875 -7.128906 13.671875 -5.890625 Z M 7.421875 -9.125 C 6.753906 -9.125 6.21875 -8.976562 5.8125 -8.6875 C 5.414062 -8.40625 5.117188 -8.015625 4.921875 -7.515625 L 9.796875 -7.515625 C 9.597656 -8.015625 9.304688 -8.40625 8.921875 -8.6875 C 8.546875 -8.976562 8.046875 -9.125 7.421875 -9.125 Z M 7.421875 -9.125 "/></g></g></g><g fill="#053a40" fill-opacity="1"><g transform="translate(92.200547, 86.743445)"><g><path d="M 5.515625 0.234375 C 4.472656 0.234375 3.472656 -0.0078125 2.515625 -0.5 C 1.554688 -0.988281 0.90625 -1.679688 0.5625 -2.578125 L 3.3125 -3.953125 C 3.582031 -3.472656 3.898438 -3.148438 4.265625 -2.984375 C 4.628906 -2.816406 4.96875 -2.734375 5.28125 -2.734375 C 5.59375 -2.734375 5.84375 -2.796875 6.03125 -2.921875 C 6.21875 -3.046875 6.3125 -3.226562 6.3125 -3.46875 C 6.3125 -3.675781 6.207031 -3.863281 6 -4.03125 C 5.789062 -4.195312 5.425781 -4.378906 4.90625 -4.578125 C 4.445312 -4.753906 3.929688 -4.972656 3.359375 -5.234375 C 2.785156 -5.492188 2.28125 -5.859375 1.84375 -6.328125 C 1.414062 -6.804688 1.203125 -7.4375 1.203125 -8.21875 C 1.203125 -8.882812 1.378906 -9.5 1.734375 -10.0625 C 2.097656 -10.625 2.609375 -11.082031 3.265625 -11.4375 C 3.921875 -11.789062 4.691406 -11.96875 5.578125 -11.96875 C 6.398438 -11.96875 7.15625 -11.820312 7.84375 -11.53125 C 8.539062 -11.238281 9.101562 -10.867188 9.53125 -10.421875 L 7.65625 -8.296875 C 7.476562 -8.515625 7.226562 -8.710938 6.90625 -8.890625 C 6.582031 -9.066406 6.226562 -9.15625 5.84375 -9.15625 C 5.53125 -9.15625 5.296875 -9.085938 5.140625 -8.953125 C 4.984375 -8.828125 4.90625 -8.671875 4.90625 -8.484375 C 4.90625 -8.265625 5.003906 -8.09375 5.203125 -7.96875 C 5.410156 -7.84375 5.726562 -7.691406 6.15625 -7.515625 C 6.726562 -7.296875 7.285156 -7.03125 7.828125 -6.71875 C 8.378906 -6.40625 8.835938 -6 9.203125 -5.5 C 9.578125 -5 9.765625 -4.359375 9.765625 -3.578125 C 9.765625 -2.484375 9.390625 -1.570312 8.640625 -0.84375 C 7.890625 -0.125 6.847656 0.234375 5.515625 0.234375 Z M 5.515625 0.234375 "/></g></g></g><g fill="#053a40" fill-opacity="1"><g transform="translate(105.75955, 86.743445)"><g><path d="M 5.515625 0.234375 C 4.472656 0.234375 3.472656 -0.0078125 2.515625 -0.5 C 1.554688 -0.988281 0.90625 -1.679688 0.5625 -2.578125 L 3.3125 -3.953125 C 3.582031 -3.472656 3.898438 -3.148438 4.265625 -2.984375 C 4.628906 -2.816406 4.96875 -2.734375 5.28125 -2.734375 C 5.59375 -2.734375 5.84375 -2.796875 6.03125 -2.921875 C 6.21875 -3.046875 6.3125 -3.226562 6.3125 -3.46875 C 6.3125 -3.675781 6.207031 -3.863281 6 -4.03125 C 5.789062 -4.195312 5.425781 -4.378906 4.90625 -4.578125 C 4.445312 -4.753906 3.929688 -4.972656 3.359375 -5.234375 C 2.785156 -5.492188 2.28125 -5.859375 1.84375 -6.328125 C 1.414062 -6.804688 1.203125 -7.4375 1.203125 -8.21875 C 1.203125 -8.882812 1.378906 -9.5 1.734375 -10.0625 C 2.097656 -10.625 2.609375 -11.082031 3.265625 -11.4375 C 3.921875 -11.789062 4.691406 -11.96875 5.578125 -11.96875 C 6.398438 -11.96875 7.15625 -11.820312 7.84375 -11.53125 C 8.539062 -11.238281 9.101562 -10.867188 9.53125 -10.421875 L 7.65625 -8.296875 C 7.476562 -8.515625 7.226562 -8.710938 6.90625 -8.890625 C 6.582031 -9.066406 6.226562 -9.15625 5.84375 -9.15625 C 5.53125 -9.15625 5.296875 -9.085938 5.140625 -8.953125 C 4.984375 -8.828125 4.90625 -8.671875 4.90625 -8.484375 C 4.90625 -8.265625 5.003906 -8.09375 5.203125 -7.96875 C 5.410156 -7.84375 5.726562 -7.691406 6.15625 -7.515625 C 6.726562 -7.296875 7.285156 -7.03125 7.828125 -6.71875 C 8.378906 -6.40625 8.835938 -6 9.203125 -5.5 C 9.578125 -5 9.765625 -4.359375 9.765625 -3.578125 C 9.765625 -2.484375 9.390625 -1.570312 8.640625 -0.84375 C 7.890625 -0.125 6.847656 0.234375 5.515625 0.234375 Z M 5.515625 0.234375 "/></g></g></g><g fill="#053a40" fill-opacity="1"><g transform="translate(119.318553, 86.743445)"><g><path d="M 14.8125 -3.046875 L 15.34375 -3.046875 L 15.34375 0 C 15.207031 0.0625 15.054688 0.113281 14.890625 0.15625 C 14.722656 0.207031 14.539062 0.234375 14.34375 0.234375 C 13.5625 0.234375 12.859375 0.0546875 12.234375 -0.296875 C 11.609375 -0.660156 11.109375 -1.148438 10.734375 -1.765625 C 10.265625 -1.148438 9.691406 -0.660156 9.015625 -0.296875 C 8.347656 0.0546875 7.582031 0.234375 6.71875 0.234375 C 5.644531 0.234375 4.664062 -0.0351562 3.78125 -0.578125 C 2.90625 -1.128906 2.207031 -1.863281 1.6875 -2.78125 C 1.164062 -3.707031 0.90625 -4.738281 0.90625 -5.875 C 0.90625 -7 1.164062 -8.019531 1.6875 -8.9375 C 2.207031 -9.863281 2.90625 -10.597656 3.78125 -11.140625 C 4.664062 -11.691406 5.644531 -11.96875 6.71875 -11.96875 C 7.40625 -11.96875 8.023438 -11.851562 8.578125 -11.625 C 9.140625 -11.40625 9.632812 -11.097656 10.0625 -10.703125 L 10.0625 -11.734375 L 13.78125 -11.734375 L 13.78125 -4.1875 C 13.78125 -3.707031 13.890625 -3.394531 14.109375 -3.25 C 14.328125 -3.113281 14.5625 -3.046875 14.8125 -3.046875 Z M 7.453125 -3.078125 C 8.210938 -3.078125 8.863281 -3.34375 9.40625 -3.875 C 9.957031 -4.414062 10.234375 -5.082031 10.234375 -5.875 C 10.234375 -6.65625 9.957031 -7.3125 9.40625 -7.84375 C 8.863281 -8.382812 8.210938 -8.65625 7.453125 -8.65625 C 6.671875 -8.65625 6.007812 -8.382812 5.46875 -7.84375 C 4.9375 -7.3125 4.671875 -6.65625 4.671875 -5.875 C 4.671875 -5.082031 4.9375 -4.414062 5.46875 -3.875 C 6.007812 -3.34375 6.671875 -3.078125 7.453125 -3.078125 Z M 7.453125 -3.078125 "/></g></g></g><g fill="#053a40" fill-opacity="1"><g transform="translate(138.33032, 86.743445)"><g/></g></g><g fill="#053a40" fill-opacity="1"><g transform="translate(148.605921, 86.743445)"><g><path d="M 10.0625 -20.09375 L 13.78125 -20.09375 L 13.78125 0 L 10.0625 0.03125 L 10.0625 -1.03125 C 9.632812 -0.632812 9.140625 -0.320312 8.578125 -0.09375 C 8.023438 0.125 7.40625 0.234375 6.71875 0.234375 C 5.644531 0.234375 4.664062 -0.0351562 3.78125 -0.578125 C 2.90625 -1.128906 2.207031 -1.863281 1.6875 -2.78125 C 1.164062 -3.707031 0.90625 -4.738281 0.90625 -5.875 C 0.90625 -7 1.164062 -8.019531 1.6875 -8.9375 C 2.207031 -9.863281 2.90625 -10.597656 3.78125 -11.140625 C 4.664062 -11.691406 5.644531 -11.96875 6.71875 -11.96875 C 7.40625 -11.96875 8.023438 -11.851562 8.578125 -11.625 C 9.140625 -11.40625 9.632812 -11.097656 10.0625 -10.703125 Z M 7.453125 -3.078125 C 8.210938 -3.078125 8.863281 -3.34375 9.40625 -3.875 C 9.957031 -4.414062 10.234375 -5.082031 10.234375 -5.875 C 10.234375 -6.65625 9.957031 -7.3125 9.40625 -7.84375 C 8.863281 -8.382812 8.210938 -8.65625 7.453125 -8.65625 C 6.671875 -8.65625 6.007812 -8.382812 5.46875 -7.84375 C 4.9375 -7.3125 4.671875 -6.65625 4.671875 -5.875 C 4.671875 -5.082031 4.9375 -4.414062 5.46875 -3.875 C 6.007812 -3.34375 6.671875 -3.078125 7.453125 -3.078125 Z M 7.453125 -3.078125 "/></g></g></g><g fill="#053a40" fill-opacity="1"><g transform="translate(167.353848, 86.743445)"><g><path d="M 13.671875 -5.890625 L 13.671875 -5.25 L 4.6875 -5.25 C 4.769531 -4.40625 5.035156 -3.742188 5.484375 -3.265625 C 5.929688 -2.785156 6.578125 -2.546875 7.421875 -2.546875 C 8.710938 -2.546875 9.535156 -3.046875 9.890625 -4.046875 L 13.5 -4.046875 C 13.195312 -2.773438 12.523438 -1.742188 11.484375 -0.953125 C 10.441406 -0.160156 9.109375 0.234375 7.484375 0.234375 C 6.171875 0.234375 5.019531 -0.0195312 4.03125 -0.53125 C 3.039062 -1.039062 2.269531 -1.753906 1.71875 -2.671875 C 1.175781 -3.585938 0.90625 -4.65625 0.90625 -5.875 C 0.90625 -7.101562 1.175781 -8.175781 1.71875 -9.09375 C 2.269531 -10.007812 3.035156 -10.722656 4.015625 -11.234375 C 4.992188 -11.742188 6.109375 -12 7.359375 -12 C 8.628906 -12 9.734375 -11.742188 10.671875 -11.234375 C 11.617188 -10.722656 12.351562 -10.015625 12.875 -9.109375 C 13.40625 -8.203125 13.671875 -7.128906 13.671875 -5.890625 Z M 7.421875 -9.125 C 6.753906 -9.125 6.21875 -8.976562 5.8125 -8.6875 C 5.414062 -8.40625 5.117188 -8.015625 4.921875 -7.515625 L 9.796875 -7.515625 C 9.597656 -8.015625 9.304688 -8.40625 8.921875 -8.6875 C 8.546875 -8.976562 8.046875 -9.125 7.421875 -9.125 Z M 7.421875 -9.125 "/></g></g></g><g fill="#053a40" fill-opacity="1"><g transform="translate(185.134335, 86.743445)"><g/></g></g><g fill="#053a40" fill-opacity="1"><g transform="translate(195.409937, 86.743445)"><g><path d="M 7.453125 0.234375 C 6.140625 0.234375 4.992188 -0.0234375 4.015625 -0.546875 C 3.035156 -1.078125 2.269531 -1.800781 1.71875 -2.71875 C 1.175781 -3.644531 0.90625 -4.695312 0.90625 -5.875 C 0.90625 -7.039062 1.175781 -8.082031 1.71875 -9 C 2.269531 -9.925781 3.035156 -10.648438 4.015625 -11.171875 C 4.992188 -11.703125 6.140625 -11.96875 7.453125 -11.96875 C 9.210938 -11.96875 10.660156 -11.503906 11.796875 -10.578125 C 12.929688 -9.648438 13.625 -8.453125 13.875 -6.984375 L 10 -6.984375 C 9.800781 -7.492188 9.476562 -7.894531 9.03125 -8.1875 C 8.582031 -8.476562 8.054688 -8.632812 7.453125 -8.65625 C 6.648438 -8.632812 5.984375 -8.363281 5.453125 -7.84375 C 4.929688 -7.320312 4.671875 -6.664062 4.671875 -5.875 C 4.671875 -5.082031 4.929688 -4.421875 5.453125 -3.890625 C 5.984375 -3.367188 6.648438 -3.097656 7.453125 -3.078125 C 8.054688 -3.097656 8.582031 -3.257812 9.03125 -3.5625 C 9.476562 -3.863281 9.800781 -4.257812 10 -4.75 L 13.875 -4.75 C 13.625 -3.28125 12.929688 -2.082031 11.796875 -1.15625 C 10.660156 -0.226562 9.210938 0.234375 7.453125 0.234375 Z M 7.453125 0.234375 "/></g></g></g><g fill="#053a40" fill-opacity="1"><g transform="translate(213.190424, 86.743445)"><g><path d="M 6.984375 0.234375 C 5.203125 0.234375 3.835938 -0.191406 2.890625 -1.046875 C 1.941406 -1.910156 1.46875 -3.054688 1.46875 -4.484375 L 1.46875 -11.734375 L 5.21875 -11.734375 L 5.21875 -4.984375 C 5.21875 -4.441406 5.390625 -3.988281 5.734375 -3.625 C 6.078125 -3.257812 6.492188 -3.078125 6.984375 -3.078125 C 7.492188 -3.078125 7.914062 -3.257812 8.25 -3.625 C 8.59375 -3.988281 8.765625 -4.441406 8.765625 -4.984375 L 8.765625 -11.734375 L 12.5 -11.734375 L 12.5 -4.484375 C 12.5 -3.054688 12.023438 -1.910156 11.078125 -1.046875 C 10.128906 -0.191406 8.765625 0.234375 6.984375 0.234375 Z M 6.984375 0.234375 "/></g></g></g><g fill="#053a40" fill-opacity="1"><g transform="translate(230.413911, 86.743445)"><g><path d="M 3.671875 -13.703125 C 3.117188 -13.703125 2.632812 -13.90625 2.21875 -14.3125 C 1.8125 -14.726562 1.609375 -15.207031 1.609375 -15.75 C 1.609375 -16.320312 1.8125 -16.804688 2.21875 -17.203125 C 2.632812 -17.609375 3.117188 -17.8125 3.671875 -17.8125 C 4.234375 -17.8125 4.710938 -17.609375 5.109375 -17.203125 C 5.515625 -16.804688 5.71875 -16.320312 5.71875 -15.75 C 5.71875 -15.207031 5.515625 -14.726562 5.109375 -14.3125 C 4.710938 -13.90625 4.234375 -13.703125 3.671875 -13.703125 Z M 1.796875 0 L 1.796875 -11.734375 L 5.515625 -11.734375 L 5.515625 0 Z M 1.796875 0 "/></g></g></g><g fill="#053a40" fill-opacity="1"><g transform="translate(240.982672, 86.743445)"><g><path d="M 10.0625 -20.09375 L 13.78125 -20.09375 L 13.78125 0 L 10.0625 0.03125 L 10.0625 -1.03125 C 9.632812 -0.632812 9.140625 -0.320312 8.578125 -0.09375 C 8.023438 0.125 7.40625 0.234375 6.71875 0.234375 C 5.644531 0.234375 4.664062 -0.0351562 3.78125 -0.578125 C 2.90625 -1.128906 2.207031 -1.863281 1.6875 -2.78125 C 1.164062 -3.707031 0.90625 -4.738281 0.90625 -5.875 C 0.90625 -7 1.164062 -8.019531 1.6875 -8.9375 C 2.207031 -9.863281 2.90625 -10.597656 3.78125 -11.140625 C 4.664062 -11.691406 5.644531 -11.96875 6.71875 -11.96875 C 7.40625 -11.96875 8.023438 -11.851562 8.578125 -11.625 C 9.140625 -11.40625 9.632812 -11.097656 10.0625 -10.703125 Z M 7.453125 -3.078125 C 8.210938 -3.078125 8.863281 -3.34375 9.40625 -3.875 C 9.957031 -4.414062 10.234375 -5.082031 10.234375 -5.875 C 10.234375 -6.65625 9.957031 -7.3125 9.40625 -7.84375 C 8.863281 -8.382812 8.210938 -8.65625 7.453125 -8.65625 C 6.671875 -8.65625 6.007812 -8.382812 5.46875 -7.84375 C 4.9375 -7.3125 4.671875 -6.65625 4.671875 -5.875 C 4.671875 -5.082031 4.9375 -4.414062 5.46875 -3.875 C 6.007812 -3.34375 6.671875 -3.078125 7.453125 -3.078125 Z M 7.453125 -3.078125 "/></g></g></g><g fill="#053a40" fill-opacity="1"><g transform="translate(259.730599, 86.743445)"><g><path d="M 14.8125 -3.046875 L 15.34375 -3.046875 L 15.34375 0 C 15.207031 0.0625 15.054688 0.113281 14.890625 0.15625 C 14.722656 0.207031 14.539062 0.234375 14.34375 0.234375 C 13.5625 0.234375 12.859375 0.0546875 12.234375 -0.296875 C 11.609375 -0.660156 11.109375 -1.148438 10.734375 -1.765625 C 10.265625 -1.148438 9.691406 -0.660156 9.015625 -0.296875 C 8.347656 0.0546875 7.582031 0.234375 6.71875 0.234375 C 5.644531 0.234375 4.664062 -0.0351562 3.78125 -0.578125 C 2.90625 -1.128906 2.207031 -1.863281 1.6875 -2.78125 C 1.164062 -3.707031 0.90625 -4.738281 0.90625 -5.875 C 0.90625 -7 1.164062 -8.019531 1.6875 -8.9375 C 2.207031 -9.863281 2.90625 -10.597656 3.78125 -11.140625 C 4.664062 -11.691406 5.644531 -11.96875 6.71875 -11.96875 C 7.40625 -11.96875 8.023438 -11.851562 8.578125 -11.625 C 9.140625 -11.40625 9.632812 -11.097656 10.0625 -10.703125 L 10.0625 -11.734375 L 13.78125 -11.734375 L 13.78125 -4.1875 C 13.78125 -3.707031 13.890625 -3.394531 14.109375 -3.25 C 14.328125 -3.113281 14.5625 -3.046875 14.8125 -3.046875 Z M 7.453125 -3.078125 C 8.210938 -3.078125 8.863281 -3.34375 9.40625 -3.875 C 9.957031 -4.414062 10.234375 -5.082031 10.234375 -5.875 C 10.234375 -6.65625 9.957031 -7.3125 9.40625 -7.84375 C 8.863281 -8.382812 8.210938 -8.65625 7.453125 -8.65625 C 6.671875 -8.65625 6.007812 -8.382812 5.46875 -7.84375 C 4.9375 -7.3125 4.671875 -6.65625 4.671875 -5.875 C 4.671875 -5.082031 4.9375 -4.414062 5.46875 -3.875 C 6.007812 -3.34375 6.671875 -3.078125 7.453125 -3.078125 Z M 7.453125 -3.078125 "/></g></g></g><g fill="#053a40" fill-opacity="1"><g transform="translate(278.742366, 86.743445)"><g><path d="M 10.0625 -20.09375 L 13.78125 -20.09375 L 13.78125 0 L 10.0625 0.03125 L 10.0625 -1.03125 C 9.632812 -0.632812 9.140625 -0.320312 8.578125 -0.09375 C 8.023438 0.125 7.40625 0.234375 6.71875 0.234375 C 5.644531 0.234375 4.664062 -0.0351562 3.78125 -0.578125 C 2.90625 -1.128906 2.207031 -1.863281 1.6875 -2.78125 C 1.164062 -3.707031 0.90625 -4.738281 0.90625 -5.875 C 0.90625 -7 1.164062 -8.019531 1.6875 -8.9375 C 2.207031 -9.863281 2.90625 -10.597656 3.78125 -11.140625 C 4.664062 -11.691406 5.644531 -11.96875 6.71875 -11.96875 C 7.40625 -11.96875 8.023438 -11.851562 8.578125 -11.625 C 9.140625 -11.40625 9.632812 -11.097656 10.0625 -10.703125 Z M 7.453125 -3.078125 C 8.210938 -3.078125 8.863281 -3.34375 9.40625 -3.875 C 9.957031 -4.414062 10.234375 -5.082031 10.234375 -5.875 C 10.234375 -6.65625 9.957031 -7.3125 9.40625 -7.84375 C 8.863281 -8.382812 8.210938 -8.65625 7.453125 -8.65625 C 6.671875 -8.65625 6.007812 -8.382812 5.46875 -7.84375 C 4.9375 -7.3125 4.671875 -6.65625 4.671875 -5.875 C 4.671875 -5.082031 4.9375 -4.414062 5.46875 -3.875 C 6.007812 -3.34375 6.671875 -3.078125 7.453125 -3.078125 Z M 7.453125 -3.078125 "/></g></g></g><g fill="#053a40" fill-opacity="1"><g transform="translate(297.490293, 86.743445)"><g><path d="M 7.453125 0.234375 C 6.140625 0.234375 4.992188 -0.0234375 4.015625 -0.546875 C 3.035156 -1.078125 2.269531 -1.800781 1.71875 -2.71875 C 1.175781 -3.644531 0.90625 -4.695312 0.90625 -5.875 C 0.90625 -7.039062 1.175781 -8.082031 1.71875 -9 C 2.269531 -9.925781 3.035156 -10.648438 4.015625 -11.171875 C 4.992188 -11.703125 6.140625 -11.96875 7.453125 -11.96875 C 8.765625 -11.96875 9.90625 -11.703125 10.875 -11.171875 C 11.851562 -10.648438 12.613281 -9.925781 13.15625 -9 C 13.695312 -8.082031 13.96875 -7.039062 13.96875 -5.875 C 13.96875 -4.695312 13.695312 -3.644531 13.15625 -2.71875 C 12.613281 -1.800781 11.851562 -1.078125 10.875 -0.546875 C 9.90625 -0.0234375 8.765625 0.234375 7.453125 0.234375 Z M 7.453125 -3.078125 C 8.253906 -3.097656 8.914062 -3.367188 9.4375 -3.890625 C 9.96875 -4.421875 10.234375 -5.082031 10.234375 -5.875 C 10.234375 -6.664062 9.96875 -7.320312 9.4375 -7.84375 C 8.914062 -8.363281 8.253906 -8.632812 7.453125 -8.65625 C 6.648438 -8.632812 5.984375 -8.363281 5.453125 -7.84375 C 4.929688 -7.320312 4.671875 -6.664062 4.671875 -5.875 C 4.671875 -5.082031 4.929688 -4.421875 5.453125 -3.890625 C 5.984375 -3.367188 6.648438 -3.097656 7.453125 -3.078125 Z M 7.453125 -3.078125 "/></g></g></g></g></g></svg>